<svg version="1.1" xmlns="http://www.w3.org/2000/svg" viewBox="0 0 1460 520" width="1460" height="520"><!-- svg-source:excalidraw --><metadata></metadata><defs><style class="style-fonts">
      </style></defs><rect x="0" y="0" width="1460" height="520" fill="#ffffff"></rect><g stroke-linecap="round" transform="translate(10 10) rotate(0 720 250)"><path d="M0 0 L1440 0 L1440 500 L0 500" stroke="none" stroke-width="0" fill="#f8f9fa"></path><path d="M0 0 C478.98 0, 957.95 0, 1440 0 M0 0 C346.61 0, 693.21 0, 1440 0 M1440 0 C1440 182.73, 1440 365.45, 1440 500 M1440 0 C1440 105.43, 1440 210.87, 1440 500 M1440 500 C1053.43 500, 666.85 500, 0 500 M1440 500 C1044.4 500, 648.8 500, 0 500 M0 500 C0 343.52, 0 187.03, 0 0 M0 500 C0 326.6, 0 153.2, 0 0" stroke="#f8f9fa" stroke-width="1" fill="none"></path></g><g transform="translate(50 50) rotate(0 49.00999999999999 8.125)"><text x="0" y="11.63525390625" font-family="Helvetica, Segoe UI Emoji" font-size="13px" fill="#868e96" text-anchor="start" style="white-space: pre;" direction="ltr" dominant-baseline="alphabetic">State: Normal</text></g><g stroke-linecap="round" transform="translate(50 100) rotate(0 160 116)"><path d="M32 0 C107.99 0, 183.97 0, 288 0 C309.33 0, 320 10.67, 320 32 C320 89.75, 320 147.5, 320 200 C320 221.33, 309.33 232, 288 232 C195.92 232, 103.84 232, 32 232 C10.67 232, 0 221.33, 0 200 C0 161.49, 0 122.98, 0 32 C0 10.67, 10.67 0, 32 0" stroke="none" stroke-width="0" fill="#ffffff"></path><path d="M32 0 C95.63 0, 159.25 0, 288 0 M32 0 C126.95 0, 221.9 0, 288 0 M288 0 C309.33 0, 320 10.67, 320 32 M288 0 C309.33 0, 320 10.67, 320 32 M320 32 C320 86.59, 320 141.18, 320 200 M320 32 C320 85.92, 320 139.84, 320 200 M320 200 C320 221.33, 309.33 232, 288 232 M320 200 C320 221.33, 309.33 232, 288 232 M288 232 C229.3 232, 170.59 232, 32 232 M288 232 C212.32 232, 136.63 232, 32 232 M32 232 C10.67 232, 0 221.33, 0 200 M32 232 C10.67 232, 0 221.33, 0 200 M0 200 C0 150.01, 0 100.02, 0 32 M0 200 C0 165.83, 0 131.66, 0 32 M0 32 C0 10.67, 10.67 0, 32 0 M0 32 C0 10.67, 10.67 0, 32 0" stroke="#2f9e44" stroke-width="2" fill="none"></path></g><g transform="translate(70 120) rotate(0 51.03999999999999 10)"><text x="0" y="14.3203125" font-family="Helvetica, Segoe UI Emoji" font-size="16px" fill="#1a1b1e" text-anchor="start" style="white-space: pre;" direction="ltr" dominant-baseline="alphabetic">prod-web-01</text></g><g stroke-linecap="round" transform="translate(316.36 118) rotate(0 16.819999999999993 11)"><path d="M5.5 0 C13.87 0, 22.25 0, 28.14 0 C31.81 0, 33.64 1.83, 33.64 5.5 C33.64 9.07, 33.64 12.63, 33.64 16.5 C33.64 20.17, 31.81 22, 28.14 22 C20.73 22, 13.31 22, 5.5 22 C1.83 22, 0 20.17, 0 16.5 C0 13.73, 0 10.96, 0 5.5 C0 1.83, 1.83 0, 5.5 0" stroke="none" stroke-width="0" fill="#d3f9d8"></path><path d="M5.5 0 C12.94 0, 20.38 0, 28.14 0 M5.5 0 C11.57 0, 17.63 0, 28.14 0 M28.14 0 C31.81 0, 33.64 1.83, 33.64 5.5 M28.14 0 C31.81 0, 33.64 1.83, 33.64 5.5 M33.64 5.5 C33.64 9.41, 33.64 13.32, 33.64 16.5 M33.64 5.5 C33.64 9.32, 33.64 13.13, 33.64 16.5 M33.64 16.5 C33.64 20.17, 31.81 22, 28.14 22 M33.64 16.5 C33.64 20.17, 31.81 22, 28.14 22 M28.14 22 C23.16 22, 18.19 22, 5.5 22 M28.14 22 C21.64 22, 15.15 22, 5.5 22 M5.5 22 C1.83 22, 0 20.17, 0 16.5 M5.5 22 C1.83 22, 0 20.17, 0 16.5 M0 16.5 C0 14.2, 0 11.91, 0 5.5 M0 16.5 C0 12.56, 0 8.63, 0 5.5 M0 5.5 C0 1.83, 1.83 0, 5.5 0 M0 5.5 C0 1.83, 1.83 0, 5.5 0" stroke="#d3f9d8" stroke-width="1" fill="none"></path></g><g transform="translate(326.36 123) rotate(0 6.3799999999999955 6.875)"><text x="0" y="9.84521484375" font-family="Helvetica, Segoe UI Emoji" font-size="11px" fill="#2b8a3e" text-anchor="start" style="white-space: pre;" direction="ltr" dominant-baseline="alphabetic">OK</text></g><g transform="translate(70 152) rotate(0 31.319999999999993 7.5)"><text x="0" y="10.740234375" font-family="Helvetica, Segoe UI Emoji" font-size="12px" fill="#868e96" text-anchor="start" style="white-space: pre;" direction="ltr" dominant-baseline="alphabetic">10.0.4.11</text></g><g transform="translate(70 178) rotate(0 11.310000000000002 8.125)"><text x="0" y="11.63525390625" font-family="Helvetica, Segoe UI Emoji" font-size="13px" fill="#868e96" text-anchor="start" style="white-space: pre;" direction="ltr" dominant-baseline="alphabetic">CPU</text></g><g transform="translate(290 178) rotate(0 11.310000000000002 8.125)"><text x="0" y="11.63525390625" font-family="Helvetica, Segoe UI Emoji" font-size="13px" fill="#1a1b1e" text-anchor="start" style="white-space: pre;" direction="ltr" dominant-baseline="alphabetic">42%</text></g><g transform="translate(70 202) rotate(0 11.310000000000002 8.125)"><text x="0" y="11.63525390625" font-family="Helvetica, Segoe UI Emoji" font-size="13px" fill="#868e96" text-anchor="start" style="white-space: pre;" direction="ltr" dominant-baseline="alphabetic">MEM</text></g><g transform="translate(290 202) rotate(0 11.310000000000002 8.125)"><text x="0" y="11.63525390625" font-family="Helvetica, Segoe UI Emoji" font-size="13px" fill="#1a1b1e" text-anchor="start" style="white-space: pre;" direction="ltr" dominant-baseline="alphabetic">61%</text></g><g transform="translate(70 226) rotate(0 15.079999999999998 8.125)"><text x="0" y="11.63525390625" font-family="Helvetica, Segoe UI Emoji" font-size="13px" fill="#868e96" text-anchor="start" style="white-space: pre;" direction="ltr" dominant-baseline="alphabetic">DISK</text></g><g transform="translate(290 226) rotate(0 11.310000000000002 8.125)"><text x="0" y="11.63525390625" font-family="Helvetica, Segoe UI Emoji" font-size="13px" fill="#1a1b1e" text-anchor="start" style="white-space: pre;" direction="ltr" dominant-baseline="alphabetic">55%</text></g><g transform="translate(70 258) rotate(0 63.8 6.875)"><text x="0" y="9.84521484375" font-family="Helvetica, Segoe UI Emoji" font-size="11px" fill="#868e96" text-anchor="start" style="white-space: pre;" direction="ltr" dominant-baseline="alphabetic">Last updated: 3s ago</text></g><g transform="translate(410 50) rotate(0 52.78 8.125)"><text x="0" y="11.63525390625" font-family="Helvetica, Segoe UI Emoji" font-size="13px" fill="#868e96" text-anchor="start" style="white-space: pre;" direction="ltr" dominant-baseline="alphabetic">State: Warning</text></g><g stroke-linecap="round" transform="translate(410 100) rotate(0 160 116)"><path d="M32 0 C105.14 0, 178.28 0, 288 0 C309.33 0, 320 10.67, 320 32 C320 81.84, 320 131.68, 320 200 C320 221.33, 309.33 232, 288 232 C189.53 232, 91.06 232, 32 232 C10.67 232, 0 221.33, 0 200 C0 146.2, 0 92.4, 0 32 C0 10.67, 10.67 0, 32 0" stroke="none" stroke-width="0" fill="#fff9db"></path><path d="M32 0 C127.09 0, 222.19 0, 288 0 M32 0 C100.82 0, 169.63 0, 288 0 M288 0 C309.33 0, 320 10.67, 320 32 M288 0 C309.33 0, 320 10.67, 320 32 M320 32 C320 77.3, 320 122.61, 320 200 M320 32 C320 77.59, 320 123.19, 320 200 M320 200 C320 221.33, 309.33 232, 288 232 M320 200 C320 221.33, 309.33 232, 288 232 M288 232 C221.37 232, 154.74 232, 32 232 M288 232 C203.99 232, 119.99 232, 32 232 M32 232 C10.67 232, 0 221.33, 0 200 M32 232 C10.67 232, 0 221.33, 0 200 M0 200 C0 156.67, 0 113.34, 0 32 M0 200 C0 159.49, 0 118.98, 0 32 M0 32 C0 10.67, 10.67 0, 32 0 M0 32 C0 10.67, 10.67 0, 32 0" stroke="#f08c00" stroke-width="2" fill="none"></path></g><g transform="translate(430 120) rotate(0 51.04000000000002 10)"><text x="0" y="14.3203125" font-family="Helvetica, Segoe UI Emoji" font-size="16px" fill="#1a1b1e" text-anchor="start" style="white-space: pre;" direction="ltr" dominant-baseline="alphabetic">prod-web-01</text></g><g stroke-linecap="round" transform="translate(642.26 118) rotate(0 33.870000000000005 11)"><path d="M5.5 0 C27.06 0, 48.63 0, 62.24 0 C65.91 0, 67.74 1.83, 67.74 5.5 C67.74 9.45, 67.74 13.39, 67.74 16.5 C67.74 20.17, 65.91 22, 62.24 22 C40.2 22, 18.17 22, 5.5 22 C1.83 22, 0 20.17, 0 16.5 C0 14.08, 0 11.66, 0 5.5 C0 1.83, 1.83 0, 5.5 0" stroke="none" stroke-width="0" fill="#ffec99"></path><path d="M5.5 0 C26.14 0, 46.79 0, 62.24 0 M5.5 0 C18.98 0, 32.46 0, 62.24 0 M62.24 0 C65.91 0, 67.74 1.83, 67.74 5.5 M62.24 0 C65.91 0, 67.74 1.83, 67.74 5.5 M67.74 5.5 C67.74 8.71, 67.74 11.92, 67.74 16.5 M67.74 5.5 C67.74 9.13, 67.74 12.75, 67.74 16.5 M67.74 16.5 C67.74 20.17, 65.91 22, 62.24 22 M67.74 16.5 C67.74 20.17, 65.91 22, 62.24 22 M62.24 22 C48.63 22, 35.02 22, 5.5 22 M62.24 22 C48.51 22, 34.79 22, 5.5 22 M5.5 22 C1.83 22, 0 20.17, 0 16.5 M5.5 22 C1.83 22, 0 20.17, 0 16.5 M0 16.5 C0 14.29, 0 12.09, 0 5.5 M0 16.5 C0 12.4, 0 8.3, 0 5.5 M0 5.5 C0 1.83, 1.83 0, 5.5 0 M0 5.5 C0 1.83, 1.83 0, 5.5 0" stroke="#ffec99" stroke-width="1" fill="none"></path></g><g transform="translate(652.26 123) rotate(0 22.329999999999984 6.875)"><text x="0" y="9.84521484375" font-family="Helvetica, Segoe UI Emoji" font-size="11px" fill="#e8590c" text-anchor="start" style="white-space: pre;" direction="ltr" dominant-baseline="alphabetic">WARNING</text></g><g transform="translate(430 152) rotate(0 31.319999999999993 7.5)"><text x="0" y="10.740234375" font-family="Helvetica, Segoe UI Emoji" font-size="12px" fill="#868e96" text-anchor="start" style="white-space: pre;" direction="ltr" dominant-baseline="alphabetic">10.0.4.11</text></g><g transform="translate(430 178) rotate(0 11.310000000000002 8.125)"><text x="0" y="11.63525390625" font-family="Helvetica, Segoe UI Emoji" font-size="13px" fill="#868e96" text-anchor="start" style="white-space: pre;" direction="ltr" dominant-baseline="alphabetic">CPU</text></g><g transform="translate(650 178) rotate(0 11.310000000000002 8.125)"><text x="0" y="11.63525390625" font-family="Helvetica, Segoe UI Emoji" font-size="13px" fill="#1a1b1e" text-anchor="start" style="white-space: pre;" direction="ltr" dominant-baseline="alphabetic">78%</text></g><g transform="translate(430 202) rotate(0 11.310000000000002 8.125)"><text x="0" y="11.63525390625" font-family="Helvetica, Segoe UI Emoji" font-size="13px" fill="#868e96" text-anchor="start" style="white-space: pre;" direction="ltr" dominant-baseline="alphabetic">MEM</text></g><g transform="translate(650 202) rotate(0 11.310000000000002 8.125)"><text x="0" y="11.63525390625" font-family="Helvetica, Segoe UI Emoji" font-size="13px" fill="#1a1b1e" text-anchor="start" style="white-space: pre;" direction="ltr" dominant-baseline="alphabetic">82%</text></g><g transform="translate(430 226) rotate(0 15.079999999999984 8.125)"><text x="0" y="11.63525390625" font-family="Helvetica, Segoe UI Emoji" font-size="13px" fill="#868e96" text-anchor="start" style="white-space: pre;" direction="ltr" dominant-baseline="alphabetic">DISK</text></g><g transform="translate(650 226) rotate(0 11.310000000000002 8.125)"><text x="0" y="11.63525390625" font-family="Helvetica, Segoe UI Emoji" font-size="13px" fill="#1a1b1e" text-anchor="start" style="white-space: pre;" direction="ltr" dominant-baseline="alphabetic">70%</text></g><g transform="translate(430 258) rotate(0 63.80000000000001 6.875)"><text x="0" y="9.84521484375" font-family="Helvetica, Segoe UI Emoji" font-size="11px" fill="#868e96" text-anchor="start" style="white-space: pre;" direction="ltr" dominant-baseline="alphabetic">Last updated: 4s ago</text></g><g transform="translate(770 50) rotate(0 56.55000000000001 8.125)"><text x="0" y="11.63525390625" font-family="Helvetica, Segoe UI Emoji" font-size="13px" fill="#868e96" text-anchor="start" style="white-space: pre;" direction="ltr" dominant-baseline="alphabetic">State: Critical</text></g><g stroke-linecap="round" transform="translate(770 100) rotate(0 160 116)"><path d="M32 0 C97.35 0, 162.7 0, 288 0 C309.33 0, 320 10.67, 320 32 C320 95.3, 320 158.61, 320 200 C320 221.33, 309.33 232, 288 232 C196.48 232, 104.96 232, 32 232 C10.67 232, 0 221.33, 0 200 C0 144.97, 0 89.94, 0 32 C0 10.67, 10.67 0, 32 0" stroke="none" stroke-width="0" fill="#fff5f5"></path><path d="M32 0 C126.16 0, 220.32 0, 288 0 M32 0 C109.21 0, 186.42 0, 288 0 M288 0 C309.33 0, 320 10.67, 320 32 M288 0 C309.33 0, 320 10.67, 320 32 M320 32 C320 91.95, 320 151.91, 320 200 M320 32 C320 68.52, 320 105.05, 320 200 M320 200 C320 221.33, 309.33 232, 288 232 M320 200 C320 221.33, 309.33 232, 288 232 M288 232 C215.36 232, 142.73 232, 32 232 M288 232 C195.74 232, 103.48 232, 32 232 M32 232 C10.67 232, 0 221.33, 0 200 M32 232 C10.67 232, 0 221.33, 0 200 M0 200 C0 133.97, 0 67.95, 0 32 M0 200 C0 141.89, 0 83.79, 0 32 M0 32 C0 10.67, 10.67 0, 32 0 M0 32 C0 10.67, 10.67 0, 32 0" stroke="#e03131" stroke-width="2" fill="none"></path></g><g transform="translate(790 120) rotate(0 51.04000000000002 10)"><text x="0" y="14.3203125" font-family="Helvetica, Segoe UI Emoji" font-size="16px" fill="#1a1b1e" text-anchor="start" style="white-space: pre;" direction="ltr" dominant-baseline="alphabetic">prod-web-01</text></g><g stroke-linecap="round" transform="translate(995.44 118) rotate(0 37.27999999999997 11)"><path d="M5.5 0 C21.36 0, 37.22 0, 69.06 0 C72.73 0, 74.56 1.83, 74.56 5.5 C74.56 9.06, 74.56 12.62, 74.56 16.5 C74.56 20.17, 72.73 22, 69.06 22 C54.97 22, 40.88 22, 5.5 22 C1.83 22, 0 20.17, 0 16.5 C0 14.09, 0 11.68, 0 5.5 C0 1.83, 1.83 0, 5.5 0" stroke="none" stroke-width="0" fill="#ffc9c9"></path><path d="M5.5 0 C27.93 0, 50.36 0, 69.06 0 M5.5 0 C29.49 0, 53.48 0, 69.06 0 M69.06 0 C72.73 0, 74.56 1.83, 74.56 5.5 M69.06 0 C72.73 0, 74.56 1.83, 74.56 5.5 M74.56 5.5 C74.56 8.43, 74.56 11.35, 74.56 16.5 M74.56 5.5 C74.56 9.08, 74.56 12.65, 74.56 16.5 M74.56 16.5 C74.56 20.17, 72.73 22, 69.06 22 M74.56 16.5 C74.56 20.17, 72.73 22, 69.06 22 M69.06 22 C56.04 22, 43.02 22, 5.5 22 M69.06 22 C46.18 22, 23.3 22, 5.5 22 M5.5 22 C1.83 22, 0 20.17, 0 16.5 M5.5 22 C1.83 22, 0 20.17, 0 16.5 M0 16.5 C0 13.62, 0 10.74, 0 5.5 M0 16.5 C0 12.16, 0 7.81, 0 5.5 M0 5.5 C0 1.83, 1.83 0, 5.5 0 M0 5.5 C0 1.83, 1.83 0, 5.5 0" stroke="#ffc9c9" stroke-width="1" fill="none"></path></g><g transform="translate(1005.44 123) rotate(0 25.519999999999982 6.875)"><text x="0" y="9.84521484375" font-family="Helvetica, Segoe UI Emoji" font-size="11px" fill="#c92a2a" text-anchor="start" style="white-space: pre;" direction="ltr" dominant-baseline="alphabetic">CRITICAL</text></g><g transform="translate(790 152) rotate(0 31.319999999999993 7.5)"><text x="0" y="10.740234375" font-family="Helvetica, Segoe UI Emoji" font-size="12px" fill="#868e96" text-anchor="start" style="white-space: pre;" direction="ltr" dominant-baseline="alphabetic">10.0.4.11</text></g><g transform="translate(790 178) rotate(0 11.310000000000002 8.125)"><text x="0" y="11.63525390625" font-family="Helvetica, Segoe UI Emoji" font-size="13px" fill="#868e96" text-anchor="start" style="white-space: pre;" direction="ltr" dominant-baseline="alphabetic">CPU</text></g><g transform="translate(1010 178) rotate(0 11.310000000000002 8.125)"><text x="0" y="11.63525390625" font-family="Helvetica, Segoe UI Emoji" font-size="13px" fill="#1a1b1e" text-anchor="start" style="white-space: pre;" direction="ltr" dominant-baseline="alphabetic">95%</text></g><g transform="translate(790 202) rotate(0 11.310000000000002 8.125)"><text x="0" y="11.63525390625" font-family="Helvetica, Segoe UI Emoji" font-size="13px" fill="#868e96" text-anchor="start" style="white-space: pre;" direction="ltr" dominant-baseline="alphabetic">MEM</text></g><g transform="translate(1010 202) rotate(0 11.310000000000002 8.125)"><text x="0" y="11.63525390625" font-family="Helvetica, Segoe UI Emoji" font-size="13px" fill="#1a1b1e" text-anchor="start" style="white-space: pre;" direction="ltr" dominant-baseline="alphabetic">91%</text></g><g transform="translate(790 226) rotate(0 15.079999999999984 8.125)"><text x="0" y="11.63525390625" font-family="Helvetica, Segoe UI Emoji" font-size="13px" fill="#868e96" text-anchor="start" style="white-space: pre;" direction="ltr" dominant-baseline="alphabetic">DISK</text></g><g transform="translate(1010 226) rotate(0 11.310000000000002 8.125)"><text x="0" y="11.63525390625" font-family="Helvetica, Segoe UI Emoji" font-size="13px" fill="#1a1b1e" text-anchor="start" style="white-space: pre;" direction="ltr" dominant-baseline="alphabetic">88%</text></g><g transform="translate(790 258) rotate(0 63.80000000000001 6.875)"><text x="0" y="9.84521484375" font-family="Helvetica, Segoe UI Emoji" font-size="11px" fill="#868e96" text-anchor="start" style="white-space: pre;" direction="ltr" dominant-baseline="alphabetic">Last updated: 2s ago</text></g><g transform="translate(1130 50) rotate(0 67.86000000000001 8.125)"><text x="0" y="11.63525390625" font-family="Helvetica, Segoe UI Emoji" font-size="13px" fill="#868e96" text-anchor="start" style="white-space: pre;" direction="ltr" dominant-baseline="alphabetic">State: Unreachable</text></g><g stroke-linecap="round" transform="translate(1130 100) rotate(0 160 116)"><path d="M32 0 C133.23 0, 234.47 0, 288 0 C309.33 0, 320 10.67, 320 32 C320 83.21, 320 134.41, 320 200 C320 221.33, 309.33 232, 288 232 C209.6 232, 131.2 232, 32 232 C10.67 232, 0 221.33, 0 200 C0 153.53, 0 107.07, 0 32 C0 10.67, 10.67 0, 32 0" stroke="none" stroke-width="0" fill="#f1f3f5"></path><path d="M32 0 C129.2 0, 226.39 0, 288 0 M288 0 C309.33 0, 320 10.67, 320 32 M320 32 C320 93.77, 320 155.53, 320 200 M320 200 C320 221.33, 309.33 232, 288 232 M288 232 C193.68 232, 99.36 232, 32 232 M32 232 C10.67 232, 0 221.33, 0 200 M0 200 C0 135.93, 0 71.86, 0 32 M0 32 C0 10.67, 10.67 0, 32 0" stroke="#868e96" stroke-width="2.5" fill="none" stroke-dasharray="8 10"></path></g><g transform="translate(1150 120) rotate(0 51.039999999999964 10)"><text x="0" y="14.3203125" font-family="Helvetica, Segoe UI Emoji" font-size="16px" fill="#adb5bd" text-anchor="start" style="white-space: pre;" direction="ltr" dominant-baseline="alphabetic">prod-web-01</text></g><g stroke-linecap="round" transform="translate(1334.98 118) rotate(0 47.50999999999999 11)"><path d="M5.5 0 C27.41 0, 49.32 0, 89.52 0 C93.19 0, 95.02 1.83, 95.02 5.5 C95.02 9.35, 95.02 13.19, 95.02 16.5 C95.02 20.17, 93.19 22, 89.52 22 C60.23 22, 30.94 22, 5.5 22 C1.83 22, 0 20.17, 0 16.5 C0 12.92, 0 9.35, 0 5.5 C0 1.83, 1.83 0, 5.5 0" stroke="none" stroke-width="0" fill="#e9ecef"></path><path d="M5.5 0 C33.74 0, 61.98 0, 89.52 0 M5.5 0 C33.83 0, 62.16 0, 89.52 0 M89.52 0 C93.19 0, 95.02 1.83, 95.02 5.5 M89.52 0 C93.19 0, 95.02 1.83, 95.02 5.5 M95.02 5.5 C95.02 8.11, 95.02 10.72, 95.02 16.5 M95.02 5.5 C95.02 7.87, 95.02 10.25, 95.02 16.5 M95.02 16.5 C95.02 20.17, 93.19 22, 89.52 22 M95.02 16.5 C95.02 20.17, 93.19 22, 89.52 22 M89.52 22 C64.37 22, 39.22 22, 5.5 22 M89.52 22 C59.37 22, 29.22 22, 5.5 22 M5.5 22 C1.83 22, 0 20.17, 0 16.5 M5.5 22 C1.83 22, 0 20.17, 0 16.5 M0 16.5 C0 12.97, 0 9.43, 0 5.5 M0 16.5 C0 12.72, 0 8.94, 0 5.5 M0 5.5 C0 1.83, 1.83 0, 5.5 0 M0 5.5 C0 1.83, 1.83 0, 5.5 0" stroke="#e9ecef" stroke-width="1" fill="none"></path></g><g transform="translate(1344.98 123) rotate(0 35.09000000000003 6.875)"><text x="0" y="9.84521484375" font-family="Helvetica, Segoe UI Emoji" font-size="11px" fill="#868e96" text-anchor="start" style="white-space: pre;" direction="ltr" dominant-baseline="alphabetic">UNREACHABLE</text></g><g transform="translate(1150 152) rotate(0 31.32000000000005 7.5)"><text x="0" y="10.740234375" font-family="Helvetica, Segoe UI Emoji" font-size="12px" fill="#868e96" text-anchor="start" style="white-space: pre;" direction="ltr" dominant-baseline="alphabetic">10.0.4.11</text></g><g transform="translate(1150 178) rotate(0 11.309999999999945 8.125)"><text x="0" y="11.63525390625" font-family="Helvetica, Segoe UI Emoji" font-size="13px" fill="#868e96" text-anchor="start" style="white-space: pre;" direction="ltr" dominant-baseline="alphabetic">CPU</text></g><g transform="translate(1370 178) rotate(0 3.769999999999982 8.125)"><text x="0" y="11.63525390625" font-family="Helvetica, Segoe UI Emoji" font-size="13px" fill="#adb5bd" text-anchor="start" style="white-space: pre;" direction="ltr" dominant-baseline="alphabetic">—</text></g><g transform="translate(1150 202) rotate(0 11.309999999999945 8.125)"><text x="0" y="11.63525390625" font-family="Helvetica, Segoe UI Emoji" font-size="13px" fill="#868e96" text-anchor="start" style="white-space: pre;" direction="ltr" dominant-baseline="alphabetic">MEM</text></g><g transform="translate(1370 202) rotate(0 3.769999999999982 8.125)"><text x="0" y="11.63525390625" font-family="Helvetica, Segoe UI Emoji" font-size="13px" fill="#adb5bd" text-anchor="start" style="white-space: pre;" direction="ltr" dominant-baseline="alphabetic">—</text></g><g transform="translate(1150 226) rotate(0 15.080000000000041 8.125)"><text x="0" y="11.63525390625" font-family="Helvetica, Segoe UI Emoji" font-size="13px" fill="#868e96" text-anchor="start" style="white-space: pre;" direction="ltr" dominant-baseline="alphabetic">DISK</text></g><g transform="translate(1370 226) rotate(0 3.769999999999982 8.125)"><text x="0" y="11.63525390625" font-family="Helvetica, Segoe UI Emoji" font-size="13px" fill="#adb5bd" text-anchor="start" style="white-space: pre;" direction="ltr" dominant-baseline="alphabetic">—</text></g><g transform="translate(1150 258) rotate(0 66.99000000000001 6.875)"><text x="0" y="9.84521484375" font-family="Helvetica, Segoe UI Emoji" font-size="11px" fill="#868e96" text-anchor="start" style="white-space: pre;" direction="ltr" dominant-baseline="alphabetic">Last updated: 47s ago</text></g></svg>