<svg version="1.1" xmlns="http://www.w3.org/2000/svg" viewBox="0 0 1460 920" width="1460" height="920"><!-- svg-source:excalidraw --><metadata></metadata><defs><style class="style-fonts">
      </style></defs><rect x="0" y="0" width="1460" height="920" fill="#ffffff"></rect><g stroke-linecap="round" transform="translate(10 10) rotate(0 720 450)"><path d="M0 0 L1440 0 L1440 900 L0 900" stroke="none" stroke-width="0" fill="#f8f9fa"></path><path d="M0 0 C526.79 0, 1053.57 0, 1440 0 M0 0 C454.55 0, 909.1 0, 1440 0 M1440 0 C1440 273.77, 1440 547.55, 1440 900 M1440 0 C1440 207.25, 1440 414.5, 1440 900 M1440 900 C867.94 900, 295.88 900, 0 900 M1440 900 C1085.44 900, 730.88 900, 0 900 M0 900 C0 703.56, 0 507.12, 0 0 M0 900 C0 675.91, 0 451.81, 0 0" stroke="#f8f9fa" stroke-width="1" fill="none"></path></g><g stroke-linecap="round" transform="translate(50 44) rotate(0 14 14)"><path d="M7 0 C11.08 0, 15.16 0, 21 0 C25.67 0, 28 2.33, 28 7 C28 10.83, 28 14.66, 28 21 C28 25.67, 25.67 28, 21 28 C16.86 28, 12.71 28, 7 28 C2.33 28, 0 25.67, 0 21 C0 16.88, 0 12.75, 0 7 C0 2.33, 2.33 0, 7 0" stroke="none" stroke-width="0" fill="#3b5bdb"></path><path d="M7 0 C12.2 0, 17.41 0, 21 0 M7 0 C12.1 0, 17.2 0, 21 0 M21 0 C25.67 0, 28 2.33, 28 7 M21 0 C25.67 0, 28 2.33, 28 7 M28 7 C28 11.79, 28 16.59, 28 21 M28 7 C28 9.88, 28 12.75, 28 21 M28 21 C28 25.67, 25.67 28, 21 28 M28 21 C28 25.67, 25.67 28, 21 28 M21 28 C15.49 28, 9.98 28, 7 28 M21 28 C17.48 28, 13.96 28, 7 28 M7 28 C2.33 28, 0 25.67, 0 21 M7 28 C2.33 28, 0 25.67, 0 21 M0 21 C0 17.53, 0 14.06, 0 7 M0 21 C0 16.1, 0 11.2, 0 7 M0 7 C0 2.33, 2.33 0, 7 0 M0 7 C0 2.33, 2.33 0, 7 0" stroke="#3b5bdb" stroke-width="1" fill="none"></path></g><g transform="translate(88 42) rotate(0 121.80000000000001 12.5)"><text x="0" y="17.900390625" font-family="Helvetica, Segoe UI Emoji" font-size="20px" fill="#1a1b1e" text-anchor="start" style="white-space: pre;" direction="ltr" dominant-baseline="alphabetic">W.A.T.C.H — Dashboard</text></g><g transform="translate(1200 47) rotate(0 71.63 8.125)"><text x="0" y="11.63525390625" font-family="Helvetica, Segoe UI Emoji" font-size="13px" fill="#868e96" text-anchor="start" style="white-space: pre;" direction="ltr" dominant-baseline="alphabetic">Logged in as: admin</text></g><g stroke-linecap="round" transform="translate(1350 40) rotate(0 35 16)"><path d="M8 0 C26.97 0, 45.95 0, 62 0 C67.33 0, 70 2.67, 70 8 C70 12.18, 70 16.36, 70 24 C70 29.33, 67.33 32, 62 32 C41.03 32, 20.07 32, 8 32 C2.67 32, 0 29.33, 0 24 C0 18.46, 0 12.92, 0 8 C0 2.67, 2.67 0, 8 0" stroke="none" stroke-width="0" fill="#ffffff"></path><path d="M8 0 C27.55 0, 47.1 0, 62 0 M8 0 C27.74 0, 47.47 0, 62 0 M62 0 C67.33 0, 70 2.67, 70 8 M62 0 C67.33 0, 70 2.67, 70 8 M70 8 C70 11.84, 70 15.67, 70 24 M70 8 C70 13.96, 70 19.93, 70 24 M70 24 C70 29.33, 67.33 32, 62 32 M70 24 C70 29.33, 67.33 32, 62 32 M62 32 C45.86 32, 29.73 32, 8 32 M62 32 C42.4 32, 22.8 32, 8 32 M8 32 C2.67 32, 0 29.33, 0 24 M8 32 C2.67 32, 0 29.33, 0 24 M0 24 C0 18.78, 0 13.56, 0 8 M0 24 C0 19.24, 0 14.47, 0 8 M0 8 C0 2.67, 2.67 0, 8 0 M0 8 C0 2.67, 2.67 0, 8 0" stroke="#dee2e6" stroke-width="1" fill="none"></path></g><g transform="translate(1364 48) rotate(0 22.620000000000005 8.125)"><text x="0" y="11.63525390625" font-family="Helvetica, Segoe UI Emoji" font-size="13px" fill="#1a1b1e" text-anchor="start" style="white-space: pre;" direction="ltr" dominant-baseline="alphabetic">Logout</text></g><g stroke-linecap="round" transform="translate(50 102) rotate(0 160 116)"><path d="M32 0 C88.87 0, 145.75 0, 288 0 C309.33 0, 320 10.67, 320 32 C320 90.12, 320 148.23, 320 200 C320 221.33, 309.33 232, 288 232 C198.16 232, 108.32 232, 32 232 C10.67 232, 0 221.33, 0 200 C0 148.2, 0 96.4, 0 32 C0 10.67, 10.67 0, 32 0" stroke="none" stroke-width="0" fill="#ffffff"></path><path d="M32 0 C89.91 0, 147.82 0, 288 0 M32 0 C133.06 0, 234.12 0, 288 0 M288 0 C309.33 0, 320 10.67, 320 32 M288 0 C309.33 0, 320 10.67, 320 32 M320 32 C320 94.71, 320 157.41, 320 200 M320 32 C320 91.02, 320 150.05, 320 200 M320 200 C320 221.33, 309.33 232, 288 232 M320 200 C320 221.33, 309.33 232, 288 232 M288 232 C199.51 232, 111.01 232, 32 232 M288 232 C211.06 232, 134.12 232, 32 232 M32 232 C10.67 232, 0 221.33, 0 200 M32 232 C10.67 232, 0 221.33, 0 200 M0 200 C0 165.01, 0 130.02, 0 32 M0 200 C0 135.65, 0 71.3, 0 32 M0 32 C0 10.67, 10.67 0, 32 0 M0 32 C0 10.67, 10.67 0, 32 0" stroke="#2f9e44" stroke-width="2" fill="none"></path></g><g transform="translate(70 122) rotate(0 51.03999999999999 10)"><text x="0" y="14.3203125" font-family="Helvetica, Segoe UI Emoji" font-size="16px" fill="#1a1b1e" text-anchor="start" style="white-space: pre;" direction="ltr" dominant-baseline="alphabetic">prod-web-01</text></g><g stroke-linecap="round" transform="translate(316.36 120) rotate(0 16.819999999999993 11)"><path d="M5.5 0 C11.27 0, 17.05 0, 28.14 0 C31.81 0, 33.64 1.83, 33.64 5.5 C33.64 8.86, 33.64 12.23, 33.64 16.5 C33.64 20.17, 31.81 22, 28.14 22 C22.9 22, 17.65 22, 5.5 22 C1.83 22, 0 20.17, 0 16.5 C0 12.42, 0 8.35, 0 5.5 C0 1.83, 1.83 0, 5.5 0" stroke="none" stroke-width="0" fill="#d3f9d8"></path><path d="M5.5 0 C11.55 0, 17.61 0, 28.14 0 M5.5 0 C10.67 0, 15.84 0, 28.14 0 M28.14 0 C31.81 0, 33.64 1.83, 33.64 5.5 M28.14 0 C31.81 0, 33.64 1.83, 33.64 5.5 M33.64 5.5 C33.64 8.07, 33.64 10.63, 33.64 16.5 M33.64 5.5 C33.64 8.94, 33.64 12.37, 33.64 16.5 M33.64 16.5 C33.64 20.17, 31.81 22, 28.14 22 M33.64 16.5 C33.64 20.17, 31.81 22, 28.14 22 M28.14 22 C23.08 22, 18.01 22, 5.5 22 M28.14 22 C22.9 22, 17.67 22, 5.5 22 M5.5 22 C1.83 22, 0 20.17, 0 16.5 M5.5 22 C1.83 22, 0 20.17, 0 16.5 M0 16.5 C0 12.72, 0 8.95, 0 5.5 M0 16.5 C0 13.79, 0 11.07, 0 5.5 M0 5.5 C0 1.83, 1.83 0, 5.5 0 M0 5.5 C0 1.83, 1.83 0, 5.5 0" stroke="#d3f9d8" stroke-width="1" fill="none"></path></g><g transform="translate(326.36 125) rotate(0 6.3799999999999955 6.875)"><text x="0" y="9.84521484375" font-family="Helvetica, Segoe UI Emoji" font-size="11px" fill="#2b8a3e" text-anchor="start" style="white-space: pre;" direction="ltr" dominant-baseline="alphabetic">OK</text></g><g transform="translate(70 154) rotate(0 31.319999999999993 7.5)"><text x="0" y="10.740234375" font-family="Helvetica, Segoe UI Emoji" font-size="12px" fill="#868e96" text-anchor="start" style="white-space: pre;" direction="ltr" dominant-baseline="alphabetic">10.0.4.11</text></g><g transform="translate(70 180) rotate(0 11.310000000000002 8.125)"><text x="0" y="11.63525390625" font-family="Helvetica, Segoe UI Emoji" font-size="13px" fill="#868e96" text-anchor="start" style="white-space: pre;" direction="ltr" dominant-baseline="alphabetic">CPU</text></g><g transform="translate(290 180) rotate(0 11.310000000000002 8.125)"><text x="0" y="11.63525390625" font-family="Helvetica, Segoe UI Emoji" font-size="13px" fill="#1a1b1e" text-anchor="start" style="white-space: pre;" direction="ltr" dominant-baseline="alphabetic">42%</text></g><g transform="translate(70 204) rotate(0 11.310000000000002 8.125)"><text x="0" y="11.63525390625" font-family="Helvetica, Segoe UI Emoji" font-size="13px" fill="#868e96" text-anchor="start" style="white-space: pre;" direction="ltr" dominant-baseline="alphabetic">MEM</text></g><g transform="translate(290 204) rotate(0 11.310000000000002 8.125)"><text x="0" y="11.63525390625" font-family="Helvetica, Segoe UI Emoji" font-size="13px" fill="#1a1b1e" text-anchor="start" style="white-space: pre;" direction="ltr" dominant-baseline="alphabetic">61%</text></g><g transform="translate(70 228) rotate(0 15.079999999999998 8.125)"><text x="0" y="11.63525390625" font-family="Helvetica, Segoe UI Emoji" font-size="13px" fill="#868e96" text-anchor="start" style="white-space: pre;" direction="ltr" dominant-baseline="alphabetic">DISK</text></g><g transform="translate(290 228) rotate(0 11.310000000000002 8.125)"><text x="0" y="11.63525390625" font-family="Helvetica, Segoe UI Emoji" font-size="13px" fill="#1a1b1e" text-anchor="start" style="white-space: pre;" direction="ltr" dominant-baseline="alphabetic">55%</text></g><g transform="translate(70 260) rotate(0 63.8 6.875)"><text x="0" y="9.84521484375" font-family="Helvetica, Segoe UI Emoji" font-size="11px" fill="#868e96" text-anchor="start" style="white-space: pre;" direction="ltr" dominant-baseline="alphabetic">Last updated: 3s ago</text></g><g stroke-linecap="round" transform="translate(394 102) rotate(0 160 116)"><path d="M32 0 C131.99 0, 231.98 0, 288 0 C309.33 0, 320 10.67, 320 32 C320 83.41, 320 134.83, 320 200 C320 221.33, 309.33 232, 288 232 C190.55 232, 93.1 232, 32 232 C10.67 232, 0 221.33, 0 200 C0 136.56, 0 73.13, 0 32 C0 10.67, 10.67 0, 32 0" stroke="none" stroke-width="0" fill="#ffffff"></path><path d="M32 0 C83.61 0, 135.23 0, 288 0 M32 0 C109.09 0, 186.17 0, 288 0 M288 0 C309.33 0, 320 10.67, 320 32 M288 0 C309.33 0, 320 10.67, 320 32 M320 32 C320 69.43, 320 106.86, 320 200 M320 32 C320 90.73, 320 149.46, 320 200 M320 200 C320 221.33, 309.33 232, 288 232 M320 200 C320 221.33, 309.33 232, 288 232 M288 232 C221.64 232, 155.28 232, 32 232 M288 232 C220.1 232, 152.19 232, 32 232 M32 232 C10.67 232, 0 221.33, 0 200 M32 232 C10.67 232, 0 221.33, 0 200 M0 200 C0 136.49, 0 72.99, 0 32 M0 200 C0 164.88, 0 129.77, 0 32 M0 32 C0 10.67, 10.67 0, 32 0 M0 32 C0 10.67, 10.67 0, 32 0" stroke="#2f9e44" stroke-width="2" fill="none"></path></g><g transform="translate(414 122) rotate(0 51.03999999999999 10)"><text x="0" y="14.3203125" font-family="Helvetica, Segoe UI Emoji" font-size="16px" fill="#1a1b1e" text-anchor="start" style="white-space: pre;" direction="ltr" dominant-baseline="alphabetic">prod-web-02</text></g><g stroke-linecap="round" transform="translate(660.36 120) rotate(0 16.819999999999993 11)"><path d="M5.5 0 C10.95 0, 16.41 0, 28.14 0 C31.81 0, 33.64 1.83, 33.64 5.5 C33.64 8.61, 33.64 11.72, 33.64 16.5 C33.64 20.17, 31.81 22, 28.14 22 C19.73 22, 11.32 22, 5.5 22 C1.83 22, 0 20.17, 0 16.5 C0 14.25, 0 12, 0 5.5 C0 1.83, 1.83 0, 5.5 0" stroke="none" stroke-width="0" fill="#d3f9d8"></path><path d="M5.5 0 C12.69 0, 19.87 0, 28.14 0 M5.5 0 C10.44 0, 15.38 0, 28.14 0 M28.14 0 C31.81 0, 33.64 1.83, 33.64 5.5 M28.14 0 C31.81 0, 33.64 1.83, 33.64 5.5 M33.64 5.5 C33.64 8.69, 33.64 11.89, 33.64 16.5 M33.64 5.5 C33.64 8.92, 33.64 12.33, 33.64 16.5 M33.64 16.5 C33.64 20.17, 31.81 22, 28.14 22 M33.64 16.5 C33.64 20.17, 31.81 22, 28.14 22 M28.14 22 C22.45 22, 16.76 22, 5.5 22 M28.14 22 C19.79 22, 11.44 22, 5.5 22 M5.5 22 C1.83 22, 0 20.17, 0 16.5 M5.5 22 C1.83 22, 0 20.17, 0 16.5 M0 16.5 C0 12.22, 0 7.94, 0 5.5 M0 16.5 C0 12.63, 0 8.76, 0 5.5 M0 5.5 C0 1.83, 1.83 0, 5.5 0 M0 5.5 C0 1.83, 1.83 0, 5.5 0" stroke="#d3f9d8" stroke-width="1" fill="none"></path></g><g transform="translate(670.36 125) rotate(0 6.3799999999999955 6.875)"><text x="0" y="9.84521484375" font-family="Helvetica, Segoe UI Emoji" font-size="11px" fill="#2b8a3e" text-anchor="start" style="white-space: pre;" direction="ltr" dominant-baseline="alphabetic">OK</text></g><g transform="translate(414 154) rotate(0 31.319999999999993 7.5)"><text x="0" y="10.740234375" font-family="Helvetica, Segoe UI Emoji" font-size="12px" fill="#868e96" text-anchor="start" style="white-space: pre;" direction="ltr" dominant-baseline="alphabetic">10.0.4.12</text></g><g transform="translate(414 180) rotate(0 11.310000000000002 8.125)"><text x="0" y="11.63525390625" font-family="Helvetica, Segoe UI Emoji" font-size="13px" fill="#868e96" text-anchor="start" style="white-space: pre;" direction="ltr" dominant-baseline="alphabetic">CPU</text></g><g transform="translate(634 180) rotate(0 11.310000000000002 8.125)"><text x="0" y="11.63525390625" font-family="Helvetica, Segoe UI Emoji" font-size="13px" fill="#1a1b1e" text-anchor="start" style="white-space: pre;" direction="ltr" dominant-baseline="alphabetic">38%</text></g><g transform="translate(414 204) rotate(0 11.310000000000002 8.125)"><text x="0" y="11.63525390625" font-family="Helvetica, Segoe UI Emoji" font-size="13px" fill="#868e96" text-anchor="start" style="white-space: pre;" direction="ltr" dominant-baseline="alphabetic">MEM</text></g><g transform="translate(634 204) rotate(0 11.310000000000002 8.125)"><text x="0" y="11.63525390625" font-family="Helvetica, Segoe UI Emoji" font-size="13px" fill="#1a1b1e" text-anchor="start" style="white-space: pre;" direction="ltr" dominant-baseline="alphabetic">58%</text></g><g transform="translate(414 228) rotate(0 15.079999999999984 8.125)"><text x="0" y="11.63525390625" font-family="Helvetica, Segoe UI Emoji" font-size="13px" fill="#868e96" text-anchor="start" style="white-space: pre;" direction="ltr" dominant-baseline="alphabetic">DISK</text></g><g transform="translate(634 228) rotate(0 11.310000000000002 8.125)"><text x="0" y="11.63525390625" font-family="Helvetica, Segoe UI Emoji" font-size="13px" fill="#1a1b1e" text-anchor="start" style="white-space: pre;" direction="ltr" dominant-baseline="alphabetic">60%</text></g><g transform="translate(414 260) rotate(0 63.80000000000001 6.875)"><text x="0" y="9.84521484375" font-family="Helvetica, Segoe UI Emoji" font-size="11px" fill="#868e96" text-anchor="start" style="white-space: pre;" direction="ltr" dominant-baseline="alphabetic">Last updated: 4s ago</text></g><g stroke-linecap="round" transform="translate(738 102) rotate(0 160 116)"><path d="M32 0 C99.58 0, 167.17 0, 288 0 C309.33 0, 320 10.67, 320 32 C320 91.72, 320 151.44, 320 200 C320 221.33, 309.33 232, 288 232 C189.45 232, 90.9 232, 32 232 C10.67 232, 0 221.33, 0 200 C0 147.46, 0 94.92, 0 32 C0 10.67, 10.67 0, 32 0" stroke="none" stroke-width="0" fill="#fff9db"></path><path d="M32 0 C122.13 0, 212.25 0, 288 0 M32 0 C120.34 0, 208.67 0, 288 0 M288 0 C309.33 0, 320 10.67, 320 32 M288 0 C309.33 0, 320 10.67, 320 32 M320 32 C320 77.31, 320 122.63, 320 200 M320 32 C320 84.55, 320 137.1, 320 200 M320 200 C320 221.33, 309.33 232, 288 232 M320 200 C320 221.33, 309.33 232, 288 232 M288 232 C217.64 232, 147.28 232, 32 232 M288 232 C206.97 232, 125.94 232, 32 232 M32 232 C10.67 232, 0 221.33, 0 200 M32 232 C10.67 232, 0 221.33, 0 200 M0 200 C0 165.2, 0 130.4, 0 32 M0 200 C0 134.77, 0 69.54, 0 32 M0 32 C0 10.67, 10.67 0, 32 0 M0 32 C0 10.67, 10.67 0, 32 0" stroke="#f08c00" stroke-width="2" fill="none"></path></g><g transform="translate(758 122) rotate(0 46.39999999999998 10)"><text x="0" y="14.3203125" font-family="Helvetica, Segoe UI Emoji" font-size="16px" fill="#1a1b1e" text-anchor="start" style="white-space: pre;" direction="ltr" dominant-baseline="alphabetic">prod-db-01</text></g><g stroke-linecap="round" transform="translate(970.26 120) rotate(0 33.870000000000005 11)"><path d="M5.5 0 C20.88 0, 36.27 0, 62.24 0 C65.91 0, 67.74 1.83, 67.74 5.5 C67.74 9.81, 67.74 14.12, 67.74 16.5 C67.74 20.17, 65.91 22, 62.24 22 C40.76 22, 19.28 22, 5.5 22 C1.83 22, 0 20.17, 0 16.5 C0 14.23, 0 11.96, 0 5.5 C0 1.83, 1.83 0, 5.5 0" stroke="none" stroke-width="0" fill="#ffec99"></path><path d="M5.5 0 C17.45 0, 29.41 0, 62.24 0 M5.5 0 C23.98 0, 42.47 0, 62.24 0 M62.24 0 C65.91 0, 67.74 1.83, 67.74 5.5 M62.24 0 C65.91 0, 67.74 1.83, 67.74 5.5 M67.74 5.5 C67.74 8.85, 67.74 12.21, 67.74 16.5 M67.74 5.5 C67.74 8.2, 67.74 10.89, 67.74 16.5 M67.74 16.5 C67.74 20.17, 65.91 22, 62.24 22 M67.74 16.5 C67.74 20.17, 65.91 22, 62.24 22 M62.24 22 C47.5 22, 32.76 22, 5.5 22 M62.24 22 C42.35 22, 22.46 22, 5.5 22 M5.5 22 C1.83 22, 0 20.17, 0 16.5 M5.5 22 C1.83 22, 0 20.17, 0 16.5 M0 16.5 C0 13.37, 0 10.24, 0 5.5 M0 16.5 C0 12.19, 0 7.88, 0 5.5 M0 5.5 C0 1.83, 1.83 0, 5.5 0 M0 5.5 C0 1.83, 1.83 0, 5.5 0" stroke="#ffec99" stroke-width="1" fill="none"></path></g><g transform="translate(980.26 125) rotate(0 22.329999999999984 6.875)"><text x="0" y="9.84521484375" font-family="Helvetica, Segoe UI Emoji" font-size="11px" fill="#e8590c" text-anchor="start" style="white-space: pre;" direction="ltr" dominant-baseline="alphabetic">WARNING</text></g><g transform="translate(758 154) rotate(0 31.319999999999993 7.5)"><text x="0" y="10.740234375" font-family="Helvetica, Segoe UI Emoji" font-size="12px" fill="#868e96" text-anchor="start" style="white-space: pre;" direction="ltr" dominant-baseline="alphabetic">10.0.5.10</text></g><g transform="translate(758 180) rotate(0 11.310000000000002 8.125)"><text x="0" y="11.63525390625" font-family="Helvetica, Segoe UI Emoji" font-size="13px" fill="#868e96" text-anchor="start" style="white-space: pre;" direction="ltr" dominant-baseline="alphabetic">CPU</text></g><g transform="translate(978 180) rotate(0 11.310000000000002 8.125)"><text x="0" y="11.63525390625" font-family="Helvetica, Segoe UI Emoji" font-size="13px" fill="#1a1b1e" text-anchor="start" style="white-space: pre;" direction="ltr" dominant-baseline="alphabetic">82%</text></g><g transform="translate(758 204) rotate(0 11.310000000000002 8.125)"><text x="0" y="11.63525390625" font-family="Helvetica, Segoe UI Emoji" font-size="13px" fill="#868e96" text-anchor="start" style="white-space: pre;" direction="ltr" dominant-baseline="alphabetic">MEM</text></g><g transform="translate(978 204) rotate(0 11.310000000000002 8.125)"><text x="0" y="11.63525390625" font-family="Helvetica, Segoe UI Emoji" font-size="13px" fill="#1a1b1e" text-anchor="start" style="white-space: pre;" direction="ltr" dominant-baseline="alphabetic">85%</text></g><g transform="translate(758 228) rotate(0 15.079999999999984 8.125)"><text x="0" y="11.63525390625" font-family="Helvetica, Segoe UI Emoji" font-size="13px" fill="#868e96" text-anchor="start" style="white-space: pre;" direction="ltr" dominant-baseline="alphabetic">DISK</text></g><g transform="translate(978 228) rotate(0 11.310000000000002 8.125)"><text x="0" y="11.63525390625" font-family="Helvetica, Segoe UI Emoji" font-size="13px" fill="#1a1b1e" text-anchor="start" style="white-space: pre;" direction="ltr" dominant-baseline="alphabetic">70%</text></g><g transform="translate(758 260) rotate(0 63.80000000000001 6.875)"><text x="0" y="9.84521484375" font-family="Helvetica, Segoe UI Emoji" font-size="11px" fill="#868e96" text-anchor="start" style="white-space: pre;" direction="ltr" dominant-baseline="alphabetic">Last updated: 4s ago</text></g><g stroke-linecap="round" transform="translate(50 362) rotate(0 160 116)"><path d="M32 0 C98.14 0, 164.28 0, 288 0 C309.33 0, 320 10.67, 320 32 C320 97.2, 320 162.39, 320 200 C320 221.33, 309.33 232, 288 232 C217.9 232, 147.81 232, 32 232 C10.67 232, 0 221.33, 0 200 C0 133.59, 0 67.18, 0 32 C0 10.67, 10.67 0, 32 0" stroke="none" stroke-width="0" fill="#ffffff"></path><path d="M32 0 C113.94 0, 195.89 0, 288 0 M32 0 C118.03 0, 204.05 0, 288 0 M288 0 C309.33 0, 320 10.67, 320 32 M288 0 C309.33 0, 320 10.67, 320 32 M320 32 C320 88.45, 320 144.9, 320 200 M320 32 C320 86.57, 320 141.15, 320 200 M320 200 C320 221.33, 309.33 232, 288 232 M320 200 C320 221.33, 309.33 232, 288 232 M288 232 C218.11 232, 148.22 232, 32 232 M288 232 C229.62 232, 171.23 232, 32 232 M32 232 C10.67 232, 0 221.33, 0 200 M32 232 C10.67 232, 0 221.33, 0 200 M0 200 C0 147.28, 0 94.57, 0 32 M0 200 C0 149.39, 0 98.79, 0 32 M0 32 C0 10.67, 10.67 0, 32 0 M0 32 C0 10.67, 10.67 0, 32 0" stroke="#2f9e44" stroke-width="2" fill="none"></path></g><g transform="translate(70 382) rotate(0 64.96 10)"><text x="0" y="14.3203125" font-family="Helvetica, Segoe UI Emoji" font-size="16px" fill="#1a1b1e" text-anchor="start" style="white-space: pre;" direction="ltr" dominant-baseline="alphabetic">staging-api-01</text></g><g stroke-linecap="round" transform="translate(316.36 380) rotate(0 16.819999999999993 11)"><path d="M5.5 0 C13.32 0, 21.14 0, 28.14 0 C31.81 0, 33.64 1.83, 33.64 5.5 C33.64 7.9, 33.64 10.29, 33.64 16.5 C33.64 20.17, 31.81 22, 28.14 22 C22.86 22, 17.59 22, 5.5 22 C1.83 22, 0 20.17, 0 16.5 C0 12.5, 0 8.5, 0 5.5 C0 1.83, 1.83 0, 5.5 0" stroke="none" stroke-width="0" fill="#d3f9d8"></path><path d="M5.5 0 C10.89 0, 16.27 0, 28.14 0 M5.5 0 C11.24 0, 16.98 0, 28.14 0 M28.14 0 C31.81 0, 33.64 1.83, 33.64 5.5 M28.14 0 C31.81 0, 33.64 1.83, 33.64 5.5 M33.64 5.5 C33.64 7.72, 33.64 9.93, 33.64 16.5 M33.64 5.5 C33.64 7.86, 33.64 10.23, 33.64 16.5 M33.64 16.5 C33.64 20.17, 31.81 22, 28.14 22 M33.64 16.5 C33.64 20.17, 31.81 22, 28.14 22 M28.14 22 C22.98 22, 17.83 22, 5.5 22 M28.14 22 C21.58 22, 15.03 22, 5.5 22 M5.5 22 C1.83 22, 0 20.17, 0 16.5 M5.5 22 C1.83 22, 0 20.17, 0 16.5 M0 16.5 C0 12.41, 0 8.33, 0 5.5 M0 16.5 C0 13.12, 0 9.74, 0 5.5 M0 5.5 C0 1.83, 1.83 0, 5.5 0 M0 5.5 C0 1.83, 1.83 0, 5.5 0" stroke="#d3f9d8" stroke-width="1" fill="none"></path></g><g transform="translate(326.36 385) rotate(0 6.3799999999999955 6.875)"><text x="0" y="9.84521484375" font-family="Helvetica, Segoe UI Emoji" font-size="11px" fill="#2b8a3e" text-anchor="start" style="white-space: pre;" direction="ltr" dominant-baseline="alphabetic">OK</text></g><g transform="translate(70 414) rotate(0 31.319999999999993 7.5)"><text x="0" y="10.740234375" font-family="Helvetica, Segoe UI Emoji" font-size="12px" fill="#868e96" text-anchor="start" style="white-space: pre;" direction="ltr" dominant-baseline="alphabetic">10.0.6.20</text></g><g transform="translate(70 440) rotate(0 11.310000000000002 8.125)"><text x="0" y="11.63525390625" font-family="Helvetica, Segoe UI Emoji" font-size="13px" fill="#868e96" text-anchor="start" style="white-space: pre;" direction="ltr" dominant-baseline="alphabetic">CPU</text></g><g transform="translate(290 440) rotate(0 11.310000000000002 8.125)"><text x="0" y="11.63525390625" font-family="Helvetica, Segoe UI Emoji" font-size="13px" fill="#1a1b1e" text-anchor="start" style="white-space: pre;" direction="ltr" dominant-baseline="alphabetic">22%</text></g><g transform="translate(70 464) rotate(0 11.310000000000002 8.125)"><text x="0" y="11.63525390625" font-family="Helvetica, Segoe UI Emoji" font-size="13px" fill="#868e96" text-anchor="start" style="white-space: pre;" direction="ltr" dominant-baseline="alphabetic">MEM</text></g><g transform="translate(290 464) rotate(0 11.310000000000002 8.125)"><text x="0" y="11.63525390625" font-family="Helvetica, Segoe UI Emoji" font-size="13px" fill="#1a1b1e" text-anchor="start" style="white-space: pre;" direction="ltr" dominant-baseline="alphabetic">40%</text></g><g transform="translate(70 488) rotate(0 15.079999999999998 8.125)"><text x="0" y="11.63525390625" font-family="Helvetica, Segoe UI Emoji" font-size="13px" fill="#868e96" text-anchor="start" style="white-space: pre;" direction="ltr" dominant-baseline="alphabetic">DISK</text></g><g transform="translate(290 488) rotate(0 11.310000000000002 8.125)"><text x="0" y="11.63525390625" font-family="Helvetica, Segoe UI Emoji" font-size="13px" fill="#1a1b1e" text-anchor="start" style="white-space: pre;" direction="ltr" dominant-baseline="alphabetic">35%</text></g><g transform="translate(70 520) rotate(0 63.8 6.875)"><text x="0" y="9.84521484375" font-family="Helvetica, Segoe UI Emoji" font-size="11px" fill="#868e96" text-anchor="start" style="white-space: pre;" direction="ltr" dominant-baseline="alphabetic">Last updated: 5s ago</text></g><g stroke-linecap="round" transform="translate(394 362) rotate(0 160 116)"><path d="M32 0 C128.9 0, 225.81 0, 288 0 C309.33 0, 320 10.67, 320 32 C320 72.25, 320 112.51, 320 200 C320 221.33, 309.33 232, 288 232 C188.74 232, 89.48 232, 32 232 C10.67 232, 0 221.33, 0 200 C0 138.72, 0 77.44, 0 32 C0 10.67, 10.67 0, 32 0" stroke="none" stroke-width="0" fill="#ffffff"></path><path d="M32 0 C112.58 0, 193.16 0, 288 0 M32 0 C124.84 0, 217.67 0, 288 0 M288 0 C309.33 0, 320 10.67, 320 32 M288 0 C309.33 0, 320 10.67, 320 32 M320 32 C320 90.14, 320 148.29, 320 200 M320 32 C320 77.46, 320 122.92, 320 200 M320 200 C320 221.33, 309.33 232, 288 232 M320 200 C320 221.33, 309.33 232, 288 232 M288 232 C225.29 232, 162.58 232, 32 232 M288 232 C227.39 232, 166.78 232, 32 232 M32 232 C10.67 232, 0 221.33, 0 200 M32 232 C10.67 232, 0 221.33, 0 200 M0 200 C0 153.88, 0 107.76, 0 32 M0 200 C0 140.38, 0 80.75, 0 32 M0 32 C0 10.67, 10.67 0, 32 0 M0 32 C0 10.67, 10.67 0, 32 0" stroke="#2f9e44" stroke-width="2" fill="none"></path></g><g transform="translate(414 382) rotate(0 37.120000000000005 10)"><text x="0" y="14.3203125" font-family="Helvetica, Segoe UI Emoji" font-size="16px" fill="#1a1b1e" text-anchor="start" style="white-space: pre;" direction="ltr" dominant-baseline="alphabetic">cache-01</text></g><g stroke-linecap="round" transform="translate(660.36 380) rotate(0 16.819999999999993 11)"><path d="M5.5 0 C11.99 0, 18.49 0, 28.14 0 C31.81 0, 33.64 1.83, 33.64 5.5 C33.64 8.65, 33.64 11.81, 33.64 16.5 C33.64 20.17, 31.81 22, 28.14 22 C23.51 22, 18.87 22, 5.5 22 C1.83 22, 0 20.17, 0 16.5 C0 13.04, 0 9.57, 0 5.5 C0 1.83, 1.83 0, 5.5 0" stroke="none" stroke-width="0" fill="#d3f9d8"></path><path d="M5.5 0 C12.55 0, 19.6 0, 28.14 0 M5.5 0 C12.12 0, 18.75 0, 28.14 0 M28.14 0 C31.81 0, 33.64 1.83, 33.64 5.5 M28.14 0 C31.81 0, 33.64 1.83, 33.64 5.5 M33.64 5.5 C33.64 7.83, 33.64 10.15, 33.64 16.5 M33.64 5.5 C33.64 9.32, 33.64 13.14, 33.64 16.5 M33.64 16.5 C33.64 20.17, 31.81 22, 28.14 22 M33.64 16.5 C33.64 20.17, 31.81 22, 28.14 22 M28.14 22 C22.76 22, 17.38 22, 5.5 22 M28.14 22 C21.18 22, 14.22 22, 5.5 22 M5.5 22 C1.83 22, 0 20.17, 0 16.5 M5.5 22 C1.83 22, 0 20.17, 0 16.5 M0 16.5 C0 14.2, 0 11.89, 0 5.5 M0 16.5 C0 12.24, 0 7.98, 0 5.5 M0 5.5 C0 1.83, 1.83 0, 5.5 0 M0 5.5 C0 1.83, 1.83 0, 5.5 0" stroke="#d3f9d8" stroke-width="1" fill="none"></path></g><g transform="translate(670.36 385) rotate(0 6.3799999999999955 6.875)"><text x="0" y="9.84521484375" font-family="Helvetica, Segoe UI Emoji" font-size="11px" fill="#2b8a3e" text-anchor="start" style="white-space: pre;" direction="ltr" dominant-baseline="alphabetic">OK</text></g><g transform="translate(414 414) rotate(0 27.840000000000003 7.5)"><text x="0" y="10.740234375" font-family="Helvetica, Segoe UI Emoji" font-size="12px" fill="#868e96" text-anchor="start" style="white-space: pre;" direction="ltr" dominant-baseline="alphabetic">10.0.7.5</text></g><g transform="translate(414 440) rotate(0 11.310000000000002 8.125)"><text x="0" y="11.63525390625" font-family="Helvetica, Segoe UI Emoji" font-size="13px" fill="#868e96" text-anchor="start" style="white-space: pre;" direction="ltr" dominant-baseline="alphabetic">CPU</text></g><g transform="translate(634 440) rotate(0 11.310000000000002 8.125)"><text x="0" y="11.63525390625" font-family="Helvetica, Segoe UI Emoji" font-size="13px" fill="#1a1b1e" text-anchor="start" style="white-space: pre;" direction="ltr" dominant-baseline="alphabetic">30%</text></g><g transform="translate(414 464) rotate(0 11.310000000000002 8.125)"><text x="0" y="11.63525390625" font-family="Helvetica, Segoe UI Emoji" font-size="13px" fill="#868e96" text-anchor="start" style="white-space: pre;" direction="ltr" dominant-baseline="alphabetic">MEM</text></g><g transform="translate(634 464) rotate(0 11.310000000000002 8.125)"><text x="0" y="11.63525390625" font-family="Helvetica, Segoe UI Emoji" font-size="13px" fill="#1a1b1e" text-anchor="start" style="white-space: pre;" direction="ltr" dominant-baseline="alphabetic">48%</text></g><g transform="translate(414 488) rotate(0 15.079999999999984 8.125)"><text x="0" y="11.63525390625" font-family="Helvetica, Segoe UI Emoji" font-size="13px" fill="#868e96" text-anchor="start" style="white-space: pre;" direction="ltr" dominant-baseline="alphabetic">DISK</text></g><g transform="translate(634 488) rotate(0 11.310000000000002 8.125)"><text x="0" y="11.63525390625" font-family="Helvetica, Segoe UI Emoji" font-size="13px" fill="#1a1b1e" text-anchor="start" style="white-space: pre;" direction="ltr" dominant-baseline="alphabetic">20%</text></g><g transform="translate(414 520) rotate(0 63.80000000000001 6.875)"><text x="0" y="9.84521484375" font-family="Helvetica, Segoe UI Emoji" font-size="11px" fill="#868e96" text-anchor="start" style="white-space: pre;" direction="ltr" dominant-baseline="alphabetic">Last updated: 3s ago</text></g><g stroke-linecap="round" transform="translate(738 362) rotate(0 160 116)"><path d="M32 0 C118.8 0, 205.6 0, 288 0 C309.33 0, 320 10.67, 320 32 C320 67.08, 320 102.17, 320 200 C320 221.33, 309.33 232, 288 232 C198.44 232, 108.87 232, 32 232 C10.67 232, 0 221.33, 0 200 C0 166.15, 0 132.3, 0 32 C0 10.67, 10.67 0, 32 0" stroke="none" stroke-width="0" fill="#fff5f5"></path><path d="M32 0 C123.58 0, 215.16 0, 288 0 M32 0 C85.77 0, 139.53 0, 288 0 M288 0 C309.33 0, 320 10.67, 320 32 M288 0 C309.33 0, 320 10.67, 320 32 M320 32 C320 73.09, 320 114.18, 320 200 M320 32 C320 81.71, 320 131.42, 320 200 M320 200 C320 221.33, 309.33 232, 288 232 M320 200 C320 221.33, 309.33 232, 288 232 M288 232 C207.79 232, 127.58 232, 32 232 M288 232 C194.19 232, 100.37 232, 32 232 M32 232 C10.67 232, 0 221.33, 0 200 M32 232 C10.67 232, 0 221.33, 0 200 M0 200 C0 135.36, 0 70.71, 0 32 M0 200 C0 155.91, 0 111.81, 0 32 M0 32 C0 10.67, 10.67 0, 32 0 M0 32 C0 10.67, 10.67 0, 32 0" stroke="#e03131" stroke-width="2" fill="none"></path></g><g transform="translate(758 382) rotate(0 41.75999999999999 10)"><text x="0" y="14.3203125" font-family="Helvetica, Segoe UI Emoji" font-size="16px" fill="#1a1b1e" text-anchor="start" style="white-space: pre;" direction="ltr" dominant-baseline="alphabetic">worker-01</text></g><g stroke-linecap="round" transform="translate(963.44 380) rotate(0 37.27999999999997 11)"><path d="M5.5 0 C18.7 0, 31.9 0, 69.06 0 C72.73 0, 74.56 1.83, 74.56 5.5 C74.56 7.87, 74.56 10.24, 74.56 16.5 C74.56 20.17, 72.73 22, 69.06 22 C46.09 22, 23.11 22, 5.5 22 C1.83 22, 0 20.17, 0 16.5 C0 13.45, 0 10.39, 0 5.5 C0 1.83, 1.83 0, 5.5 0" stroke="none" stroke-width="0" fill="#ffc9c9"></path><path d="M5.5 0 C23.07 0, 40.63 0, 69.06 0 M5.5 0 C26.51 0, 47.53 0, 69.06 0 M69.06 0 C72.73 0, 74.56 1.83, 74.56 5.5 M69.06 0 C72.73 0, 74.56 1.83, 74.56 5.5 M74.56 5.5 C74.56 9.14, 74.56 12.78, 74.56 16.5 M74.56 5.5 C74.56 9.58, 74.56 13.65, 74.56 16.5 M74.56 16.5 C74.56 20.17, 72.73 22, 69.06 22 M74.56 16.5 C74.56 20.17, 72.73 22, 69.06 22 M69.06 22 C49.54 22, 30.01 22, 5.5 22 M69.06 22 C53.94 22, 38.83 22, 5.5 22 M5.5 22 C1.83 22, 0 20.17, 0 16.5 M5.5 22 C1.83 22, 0 20.17, 0 16.5 M0 16.5 C0 12.82, 0 9.14, 0 5.5 M0 16.5 C0 12.58, 0 8.66, 0 5.5 M0 5.5 C0 1.83, 1.83 0, 5.5 0 M0 5.5 C0 1.83, 1.83 0, 5.5 0" stroke="#ffc9c9" stroke-width="1" fill="none"></path></g><g transform="translate(973.44 385) rotate(0 25.519999999999982 6.875)"><text x="0" y="9.84521484375" font-family="Helvetica, Segoe UI Emoji" font-size="11px" fill="#c92a2a" text-anchor="start" style="white-space: pre;" direction="ltr" dominant-baseline="alphabetic">CRITICAL</text></g><g transform="translate(758 414) rotate(0 27.839999999999975 7.5)"><text x="0" y="10.740234375" font-family="Helvetica, Segoe UI Emoji" font-size="12px" fill="#868e96" text-anchor="start" style="white-space: pre;" direction="ltr" dominant-baseline="alphabetic">10.0.8.3</text></g><g transform="translate(758 440) rotate(0 11.310000000000002 8.125)"><text x="0" y="11.63525390625" font-family="Helvetica, Segoe UI Emoji" font-size="13px" fill="#868e96" text-anchor="start" style="white-space: pre;" direction="ltr" dominant-baseline="alphabetic">CPU</text></g><g transform="translate(978 440) rotate(0 11.310000000000002 8.125)"><text x="0" y="11.63525390625" font-family="Helvetica, Segoe UI Emoji" font-size="13px" fill="#1a1b1e" text-anchor="start" style="white-space: pre;" direction="ltr" dominant-baseline="alphabetic">95%</text></g><g transform="translate(758 464) rotate(0 11.310000000000002 8.125)"><text x="0" y="11.63525390625" font-family="Helvetica, Segoe UI Emoji" font-size="13px" fill="#868e96" text-anchor="start" style="white-space: pre;" direction="ltr" dominant-baseline="alphabetic">MEM</text></g><g transform="translate(978 464) rotate(0 11.310000000000002 8.125)"><text x="0" y="11.63525390625" font-family="Helvetica, Segoe UI Emoji" font-size="13px" fill="#1a1b1e" text-anchor="start" style="white-space: pre;" direction="ltr" dominant-baseline="alphabetic">91%</text></g><g transform="translate(758 488) rotate(0 15.079999999999984 8.125)"><text x="0" y="11.63525390625" font-family="Helvetica, Segoe UI Emoji" font-size="13px" fill="#868e96" text-anchor="start" style="white-space: pre;" direction="ltr" dominant-baseline="alphabetic">DISK</text></g><g transform="translate(978 488) rotate(0 11.310000000000002 8.125)"><text x="0" y="11.63525390625" font-family="Helvetica, Segoe UI Emoji" font-size="13px" fill="#1a1b1e" text-anchor="start" style="white-space: pre;" direction="ltr" dominant-baseline="alphabetic">88%</text></g><g transform="translate(758 520) rotate(0 63.80000000000001 6.875)"><text x="0" y="9.84521484375" font-family="Helvetica, Segoe UI Emoji" font-size="11px" fill="#868e96" text-anchor="start" style="white-space: pre;" direction="ltr" dominant-baseline="alphabetic">Last updated: 2s ago</text></g></svg>