<svg version="1.1" xmlns="http://www.w3.org/2000/svg" viewBox="0 0 1460 920" width="1460" height="920"><!-- svg-source:excalidraw --><metadata></metadata><defs><style class="style-fonts">
      </style></defs><rect x="0" y="0" width="1460" height="920" fill="#ffffff"></rect><g stroke-linecap="round" transform="translate(10 10) rotate(0 720 450)"><path d="M0 0 L1440 0 L1440 900 L0 900" stroke="none" stroke-width="0" fill="#f8f9fa"></path><path d="M0 0 C498.63 0, 997.25 0, 1440 0 M0 0 C522.38 0, 1044.75 0, 1440 0 M1440 0 C1440 289.19, 1440 578.38, 1440 900 M1440 0 C1440 276.64, 1440 553.29, 1440 900 M1440 900 C1100.51 900, 761.01 900, 0 900 M1440 900 C1023.26 900, 606.53 900, 0 900 M0 900 C0 570.1, 0 240.19, 0 0 M0 900 C0 685.51, 0 471.02, 0 0" stroke="#f8f9fa" stroke-width="1" fill="none"></path></g><g stroke-linecap="round" transform="translate(520 190) rotate(0 210 230)"><path d="M32 0 C107.89 0, 183.78 0, 388 0 C409.33 0, 420 10.67, 420 32 C420 122.9, 420 213.8, 420 428 C420 449.33, 409.33 460, 388 460 C247.82 460, 107.64 460, 32 460 C10.67 460, 0 449.33, 0 428 C0 318.32, 0 208.63, 0 32 C0 10.67, 10.67 0, 32 0" stroke="none" stroke-width="0" fill="#ffffff"></path><path d="M32 0 C148.81 0, 265.62 0, 388 0 M32 0 C172.44 0, 312.88 0, 388 0 M388 0 C409.33 0, 420 10.67, 420 32 M388 0 C409.33 0, 420 10.67, 420 32 M420 32 C420 178.43, 420 324.86, 420 428 M420 32 C420 111.7, 420 191.39, 420 428 M420 428 C420 449.33, 409.33 460, 388 460 M420 428 C420 449.33, 409.33 460, 388 460 M388 460 C293.55 460, 199.11 460, 32 460 M388 460 C248.89 460, 109.79 460, 32 460 M32 460 C10.67 460, 0 449.33, 0 428 M32 460 C10.67 460, 0 449.33, 0 428 M0 428 C0 278.83, 0 129.67, 0 32 M0 428 C0 286.92, 0 145.83, 0 32 M0 32 C0 10.67, 10.67 0, 32 0 M0 32 C0 10.67, 10.67 0, 32 0" stroke="#dee2e6" stroke-width="1" fill="none"></path></g><g stroke-linecap="round" transform="translate(560 230) rotate(0 18 18)"><path d="M9 0 C14.24 0, 19.48 0, 27 0 C33 0, 36 3, 36 9 C36 15.14, 36 21.27, 36 27 C36 33, 33 36, 27 36 C22.91 36, 18.83 36, 9 36 C3 36, 0 33, 0 27 C0 22.94, 0 18.89, 0 9 C0 3, 3 0, 9 0" stroke="none" stroke-width="0" fill="#3b5bdb"></path><path d="M9 0 C13.53 0, 18.06 0, 27 0 M9 0 C16.09 0, 23.17 0, 27 0 M27 0 C33 0, 36 3, 36 9 M27 0 C33 0, 36 3, 36 9 M36 9 C36 15.48, 36 21.95, 36 27 M36 9 C36 15.06, 36 21.11, 36 27 M36 27 C36 33, 33 36, 27 36 M36 27 C36 33, 33 36, 27 36 M27 36 C22.23 36, 17.45 36, 9 36 M27 36 C22.06 36, 17.11 36, 9 36 M9 36 C3 36, 0 33, 0 27 M9 36 C3 36, 0 33, 0 27 M0 27 C0 21.7, 0 16.41, 0 9 M0 27 C0 20.92, 0 14.83, 0 9 M0 9 C0 3, 3 0, 9 0 M0 9 C0 3, 3 0, 9 0" stroke="#3b5bdb" stroke-width="1" fill="none"></path></g><g transform="translate(608 235) rotate(0 67.86000000000001 16.25)"><text x="0" y="23.2705078125" font-family="Helvetica, Segoe UI Emoji" font-size="26px" fill="#1a1b1e" text-anchor="start" style="white-space: pre;" direction="ltr" dominant-baseline="alphabetic">W.A.T.C.H</text></g><g transform="translate(560 290) rotate(0 133.98000000000002 8.75)"><text x="0" y="12.5302734375" font-family="Helvetica, Segoe UI Emoji" font-size="14px" fill="#868e96" text-anchor="start" style="white-space: pre;" direction="ltr" dominant-baseline="alphabetic">Sign in to view your server fleet</text></g><g transform="translate(560 330) rotate(0 30.159999999999968 8.125)"><text x="0" y="11.63525390625" font-family="Helvetica, Segoe UI Emoji" font-size="13px" fill="#868e96" text-anchor="start" style="white-space: pre;" direction="ltr" dominant-baseline="alphabetic">Username</text></g><g stroke-linecap="round" transform="translate(560 352) rotate(0 170 22)"><path d="M11 0 C130 0, 248.99 0, 329 0 C336.33 0, 340 3.67, 340 11 C340 16.96, 340 22.92, 340 33 C340 40.33, 336.33 44, 329 44 C252.9 44, 176.8 44, 11 44 C3.67 44, 0 40.33, 0 33 C0 27.02, 0 21.04, 0 11 C0 3.67, 3.67 0, 11 0" stroke="none" stroke-width="0" fill="#f8f9fa"></path><path d="M11 0 C116.96 0, 222.92 0, 329 0 M11 0 C131.54 0, 252.08 0, 329 0 M329 0 C336.33 0, 340 3.67, 340 11 M329 0 C336.33 0, 340 3.67, 340 11 M340 11 C340 17.32, 340 23.64, 340 33 M340 11 C340 18.59, 340 26.19, 340 33 M340 33 C340 40.33, 336.33 44, 329 44 M340 33 C340 40.33, 336.33 44, 329 44 M329 44 C264.74 44, 200.48 44, 11 44 M329 44 C242.45 44, 155.91 44, 11 44 M11 44 C3.67 44, 0 40.33, 0 33 M11 44 C3.67 44, 0 40.33, 0 33 M0 33 C0 26.89, 0 20.78, 0 11 M0 33 C0 25.6, 0 18.2, 0 11 M0 11 C0 3.67, 3.67 0, 11 0 M0 11 C0 3.67, 3.67 0, 11 0" stroke="#dee2e6" stroke-width="1" fill="none"></path></g><g transform="translate(574 365) rotate(0 32.48000000000002 8.75)"><text x="0" y="12.5302734375" font-family="Helvetica, Segoe UI Emoji" font-size="14px" fill="#adb5bd" text-anchor="start" style="white-space: pre;" direction="ltr" dominant-baseline="alphabetic">Username</text></g><g transform="translate(560 416) rotate(0 30.159999999999968 8.125)"><text x="0" y="11.63525390625" font-family="Helvetica, Segoe UI Emoji" font-size="13px" fill="#868e96" text-anchor="start" style="white-space: pre;" direction="ltr" dominant-baseline="alphabetic">Password</text></g><g stroke-linecap="round" transform="translate(560 438) rotate(0 170 22)"><path d="M11 0 C90.61 0, 170.22 0, 329 0 C336.33 0, 340 3.67, 340 11 C340 19.29, 340 27.59, 340 33 C340 40.33, 336.33 44, 329 44 C207.95 44, 86.9 44, 11 44 C3.67 44, 0 40.33, 0 33 C0 28.51, 0 24.03, 0 11 C0 3.67, 3.67 0, 11 0" stroke="none" stroke-width="0" fill="#f8f9fa"></path><path d="M11 0 C107.1 0, 203.19 0, 329 0 M11 0 C120.71 0, 230.41 0, 329 0 M329 0 C336.33 0, 340 3.67, 340 11 M329 0 C336.33 0, 340 3.67, 340 11 M340 11 C340 16.02, 340 21.03, 340 33 M340 11 C340 15.66, 340 20.32, 340 33 M340 33 C340 40.33, 336.33 44, 329 44 M340 33 C340 40.33, 336.33 44, 329 44 M329 44 C244.8 44, 160.6 44, 11 44 M329 44 C252.22 44, 175.43 44, 11 44 M11 44 C3.67 44, 0 40.33, 0 33 M11 44 C3.67 44, 0 40.33, 0 33 M0 33 C0 24.94, 0 16.89, 0 11 M0 33 C0 27.09, 0 21.19, 0 11 M0 11 C0 3.67, 3.67 0, 11 0 M0 11 C0 3.67, 3.67 0, 11 0" stroke="#dee2e6" stroke-width="1" fill="none"></path></g><g transform="translate(574 451) rotate(0 32.48000000000002 8.75)"><text x="0" y="12.5302734375" font-family="Helvetica, Segoe UI Emoji" font-size="14px" fill="#adb5bd" text-anchor="start" style="white-space: pre;" direction="ltr" dominant-baseline="alphabetic">Password</text></g><g stroke-linecap="round" transform="translate(560 502) rotate(0 170 23)"><path d="M11.5 0 C127.96 0, 244.42 0, 328.5 0 C336.17 0, 340 3.83, 340 11.5 C340 20.34, 340 29.18, 340 34.5 C340 42.17, 336.17 46, 328.5 46 C243.07 46, 157.64 46, 11.5 46 C3.83 46, 0 42.17, 0 34.5 C0 27.23, 0 19.96, 0 11.5 C0 3.83, 3.83 0, 11.5 0" stroke="none" stroke-width="0" fill="#3b5bdb"></path><path d="M11.5 0 C126.12 0, 240.75 0, 328.5 0 M11.5 0 C122.47 0, 233.45 0, 328.5 0 M328.5 0 C336.17 0, 340 3.83, 340 11.5 M328.5 0 C336.17 0, 340 3.83, 340 11.5 M340 11.5 C340 16.73, 340 21.96, 340 34.5 M340 11.5 C340 16.62, 340 21.74, 340 34.5 M340 34.5 C340 42.17, 336.17 46, 328.5 46 M340 34.5 C340 42.17, 336.17 46, 328.5 46 M328.5 46 C217.99 46, 107.49 46, 11.5 46 M328.5 46 C264.8 46, 201.11 46, 11.5 46 M11.5 46 C3.83 46, 0 42.17, 0 34.5 M11.5 46 C3.83 46, 0 42.17, 0 34.5 M0 34.5 C0 26.16, 0 17.82, 0 11.5 M0 34.5 C0 28.53, 0 22.56, 0 11.5 M0 11.5 C0 3.83, 3.83 0, 11.5 0 M0 11.5 C0 3.83, 3.83 0, 11.5 0" stroke="#3b5bdb" stroke-width="1" fill="none"></path></g><g transform="translate(700 516) rotate(0 24.360000000000014 8.75)"><text x="0" y="12.5302734375" font-family="Helvetica, Segoe UI Emoji" font-size="14px" fill="#ffffff" text-anchor="start" style="white-space: pre;" direction="ltr" dominant-baseline="alphabetic">Log In</text></g><g transform="translate(560 572) rotate(0 63.80000000000001 6.875)"><text x="0" y="9.84521484375" font-family="Helvetica, Segoe UI Emoji" font-size="11px" fill="#adb5bd" text-anchor="start" style="white-space: pre;" direction="ltr" dominant-baseline="alphabetic">Error state example:</text></g><g stroke-linecap="round" transform="translate(560 590) rotate(0 170 20)"><path d="M10 0 C90.45 0, 170.91 0, 330 0 C336.67 0, 340 3.33, 340 10 C340 16.61, 340 23.23, 340 30 C340 36.67, 336.67 40, 330 40 C218.64 40, 107.28 40, 10 40 C3.33 40, 0 36.67, 0 30 C0 23.99, 0 17.99, 0 10 C0 3.33, 3.33 0, 10 0" stroke="none" stroke-width="0" fill="#fff5f5"></path><path d="M10 0 C76.83 0, 143.65 0, 330 0 M10 0 C83.95 0, 157.91 0, 330 0 M330 0 C336.67 0, 340 3.33, 340 10 M330 0 C336.67 0, 340 3.33, 340 10 M340 10 C340 17.13, 340 24.25, 340 30 M340 10 C340 17.1, 340 24.2, 340 30 M340 30 C340 36.67, 336.67 40, 330 40 M340 30 C340 36.67, 336.67 40, 330 40 M330 40 C230.94 40, 131.87 40, 10 40 M330 40 C213.67 40, 97.35 40, 10 40 M10 40 C3.33 40, 0 36.67, 0 30 M10 40 C3.33 40, 0 36.67, 0 30 M0 30 C0 23.5, 0 17, 0 10 M0 30 C0 22.08, 0 14.16, 0 10 M0 10 C0 3.33, 3.33 0, 10 0 M0 10 C0 3.33, 3.33 0, 10 0" stroke="#e03131" stroke-width="1" fill="none"></path></g><g transform="translate(574 602) rotate(0 105.56 8.125)"><text x="0" y="11.63525390625" font-family="Helvetica, Segoe UI Emoji" font-size="13px" fill="#c92a2a" text-anchor="start" style="white-space: pre;" direction="ltr" dominant-baseline="alphabetic">Invalid username or password</text></g></svg>