<svg version="1.1" xmlns="http://www.w3.org/2000/svg" viewBox="0 0 1460 520" width="1460" height="520"><!-- svg-source:excalidraw --><metadata></metadata><defs><style class="style-fonts">
      </style></defs><rect x="0" y="0" width="1460" height="520" fill="#ffffff"></rect><g stroke-linecap="round" transform="translate(10 10) rotate(0 720 250)"><path d="M-1.29 0.25 L1439.64 1.47 L1439.09 501.97 L0.99 501.66" stroke="none" stroke-width="0" fill="#f5f5f5"></path><path d="M0 0 C343.31 -0.58, 687.42 -0.3, 1440 0 M0 0 C532.84 3.31, 1066.57 3.28, 1440 0 M1440 0 C1440.89 104.86, 1441.8 207.62, 1440 500 M1440 0 C1441.4 193.74, 1441.76 388.05, 1440 500 M1440 500 C901.22 500.57, 362.47 499.96, 0 500 M1440 500 C988.09 498.85, 536.44 498.5, 0 500 M0 500 C2.08 395.27, 1.97 292.05, 0 0 M0 500 C0.56 323.74, 0.6 147.85, 0 0" stroke="#d9d9d9" stroke-width="1" fill="none"></path></g><g transform="translate(50 50) rotate(0 46.474999999999994 8.125)"><text x="0" y="11.453" font-family="Virgil, Segoe UI Emoji" font-size="13px" fill="#666666" text-anchor="start" style="white-space: pre;" direction="ltr" dominant-baseline="alphabetic">State: Normal</text></g><g stroke-linecap="round" transform="translate(50 100) rotate(0 160 116)"><path d="M32 0 C84.43 2.8, 140.44 -1.53, 288 0 C309 -0.75, 321.41 11.09, 320 32 C320.1 82.4, 315.17 131.68, 320 200 C317.09 222.9, 309.75 231.9, 288 232 C203.29 233.39, 116.26 236.34, 32 232 C8.22 231.11, 2.04 224.48, 0 200 C2.37 147.45, 6.22 89.06, 0 32 C-3.03 11.83, 11.43 2.98, 32 0" stroke="none" stroke-width="0" fill="#ffffff"></path><path d="M32 0 C125.3 -2.78, 217.63 -1.59, 288 0 M32 0 C114.52 0.46, 197.59 0.87, 288 0 M288 0 C308.73 -0.18, 319.23 9.05, 320 32 M288 0 C311.34 0.75, 320.2 11.55, 320 32 M320 32 C321.64 89.7, 321.57 143.84, 320 200 M320 32 C320.4 81.5, 320.29 130.32, 320 200 M320 200 C321.38 219.82, 310.42 231.82, 288 232 M320 200 C321.27 221.16, 309.32 231.2, 288 232 M288 232 C217.68 230.32, 148.96 230.52, 32 232 M288 232 C210.18 231.22, 131.38 231.13, 32 232 M32 232 C12.16 230.07, -1.98 222.6, 0 200 M32 232 C9.06 230.48, -0.19 222.32, 0 200 M0 200 C1.5 151.07, -2.44 102.38, 0 32 M0 200 C-1.85 152.93, -1.99 104.67, 0 32 M0 32 C1.52 12.31, 10.87 -1.71, 32 0 M0 32 C1.16 11.78, 9.93 1.45, 32 0" stroke="#d9d9d9" stroke-width="1" fill="none"></path></g><g transform="translate(70 120) rotate(0 48.400000000000006 10)"><text x="0" y="14.096" font-family="Virgil, Segoe UI Emoji" font-size="16px" fill="#262626" text-anchor="start" style="white-space: pre;" direction="ltr" dominant-baseline="alphabetic">prod-web-01</text></g><g transform="translate(70 146) rotate(0 59.400000000000006 7.5)"><text x="0" y="10.572" font-family="Virgil, Segoe UI Emoji" font-size="12px" fill="#262626" text-anchor="start" style="white-space: pre;" direction="ltr" dominant-baseline="alphabetic">prod-web-01  •  OK</text></g><g transform="translate(70 168) rotate(0 29.700000000000003 7.5)"><text x="0" y="10.572" font-family="Virgil, Segoe UI Emoji" font-size="12px" fill="#808080" text-anchor="start" style="white-space: pre;" direction="ltr" dominant-baseline="alphabetic">10.0.4.11</text></g><g transform="translate(70 194) rotate(0 10.725000000000001 8.125)"><text x="0" y="11.453" font-family="Virgil, Segoe UI Emoji" font-size="13px" fill="#737373" text-anchor="start" style="white-space: pre;" direction="ltr" dominant-baseline="alphabetic">CPU</text></g><g transform="translate(290 194) rotate(0 10.724999999999994 8.125)"><text x="0" y="11.453" font-family="Virgil, Segoe UI Emoji" font-size="13px" fill="#262626" text-anchor="start" style="white-space: pre;" direction="ltr" dominant-baseline="alphabetic">42%</text></g><g transform="translate(70 218) rotate(0 10.725000000000001 8.125)"><text x="0" y="11.453" font-family="Virgil, Segoe UI Emoji" font-size="13px" fill="#737373" text-anchor="start" style="white-space: pre;" direction="ltr" dominant-baseline="alphabetic">MEM</text></g><g transform="translate(290 218) rotate(0 10.724999999999994 8.125)"><text x="0" y="11.453" font-family="Virgil, Segoe UI Emoji" font-size="13px" fill="#262626" text-anchor="start" style="white-space: pre;" direction="ltr" dominant-baseline="alphabetic">61%</text></g><g transform="translate(70 242) rotate(0 14.299999999999997 8.125)"><text x="0" y="11.453" font-family="Virgil, Segoe UI Emoji" font-size="13px" fill="#737373" text-anchor="start" style="white-space: pre;" direction="ltr" dominant-baseline="alphabetic">DISK</text></g><g transform="translate(290 242) rotate(0 10.724999999999994 8.125)"><text x="0" y="11.453" font-family="Virgil, Segoe UI Emoji" font-size="13px" fill="#262626" text-anchor="start" style="white-space: pre;" direction="ltr" dominant-baseline="alphabetic">55%</text></g><g transform="translate(70 274) rotate(0 60.5 6.875)"><text x="0" y="9.690999999999999" font-family="Virgil, Segoe UI Emoji" font-size="11px" fill="#808080" text-anchor="start" style="white-space: pre;" direction="ltr" dominant-baseline="alphabetic">Last updated: 3s ago</text></g><g transform="translate(410 50) rotate(0 50.05000000000001 8.125)"><text x="0" y="11.453" font-family="Virgil, Segoe UI Emoji" font-size="13px" fill="#666666" text-anchor="start" style="white-space: pre;" direction="ltr" dominant-baseline="alphabetic">State: Warning</text></g><g stroke-linecap="round" transform="translate(410 100) rotate(0 160 116)"><path d="M32 0 C109.16 4.07, 185.77 5.07, 288 0 C306.97 -0.11, 317.02 8.73, 320 32 C321.43 74.78, 322.65 115.71, 320 200 C317.34 224.04, 312.23 230.19, 288 232 C230.82 231.05, 171.71 226.83, 32 232 C12.83 230.11, 2.39 219.07, 0 200 C0.99 153.33, 1.59 99.95, 0 32 C3.55 7.25, 7.75 2.64, 32 0" stroke="none" stroke-width="0" fill="#ededed"></path><path d="M32 0 C124.75 1.71, 220.31 1.79, 288 0 M32 0 C124.18 -1.44, 216.87 -1.98, 288 0 M288 0 C308.78 -1.8, 320.94 10.99, 320 32 M288 0 C307.11 0.98, 319.68 9.71, 320 32 M320 32 C319.31 84.99, 319.51 136.26, 320 200 M320 32 C318.94 76.87, 318.56 121.99, 320 200 M320 200 C320.1 220.98, 308.99 232.75, 288 232 M320 200 C318.11 219.74, 310.86 229.94, 288 232 M288 232 C211.3 233.91, 135.26 232.54, 32 232 M288 232 C208.6 232.62, 128.56 233.05, 32 232 M32 232 C9.12 230.24, 1.54 219.85, 0 200 M32 232 C9.84 230.32, 1.52 223.06, 0 200 M0 200 C0.91 161.32, 1.31 122.39, 0 32 M0 200 C-0.73 162.28, -0.41 126.04, 0 32 M0 32 C1.65 9.52, 11.48 0.97, 32 0 M0 32 C-0.5 10.63, 8.81 -0.03, 32 0" stroke="#8c8c8c" stroke-width="2" fill="none"></path></g><g transform="translate(430 120) rotate(0 48.39999999999998 10)"><text x="0" y="14.096" font-family="Virgil, Segoe UI Emoji" font-size="16px" fill="#595959" text-anchor="start" style="white-space: pre;" direction="ltr" dominant-baseline="alphabetic">prod-web-01</text></g><g transform="translate(430 146) rotate(0 75.89999999999998 7.5)"><text x="0" y="10.572" font-family="Virgil, Segoe UI Emoji" font-size="12px" fill="#595959" text-anchor="start" style="white-space: pre;" direction="ltr" dominant-baseline="alphabetic">prod-web-01  •  WARNING</text></g><g transform="translate(430 168) rotate(0 29.69999999999999 7.5)"><text x="0" y="10.572" font-family="Virgil, Segoe UI Emoji" font-size="12px" fill="#808080" text-anchor="start" style="white-space: pre;" direction="ltr" dominant-baseline="alphabetic">10.0.4.11</text></g><g transform="translate(430 194) rotate(0 10.724999999999994 8.125)"><text x="0" y="11.453" font-family="Virgil, Segoe UI Emoji" font-size="13px" fill="#737373" text-anchor="start" style="white-space: pre;" direction="ltr" dominant-baseline="alphabetic">CPU</text></g><g transform="translate(650 194) rotate(0 10.725000000000023 8.125)"><text x="0" y="11.453" font-family="Virgil, Segoe UI Emoji" font-size="13px" fill="#595959" text-anchor="start" style="white-space: pre;" direction="ltr" dominant-baseline="alphabetic">78%</text></g><g transform="translate(430 218) rotate(0 10.724999999999994 8.125)"><text x="0" y="11.453" font-family="Virgil, Segoe UI Emoji" font-size="13px" fill="#737373" text-anchor="start" style="white-space: pre;" direction="ltr" dominant-baseline="alphabetic">MEM</text></g><g transform="translate(650 218) rotate(0 10.725000000000023 8.125)"><text x="0" y="11.453" font-family="Virgil, Segoe UI Emoji" font-size="13px" fill="#595959" text-anchor="start" style="white-space: pre;" direction="ltr" dominant-baseline="alphabetic">82%</text></g><g transform="translate(430 242) rotate(0 14.300000000000011 8.125)"><text x="0" y="11.453" font-family="Virgil, Segoe UI Emoji" font-size="13px" fill="#737373" text-anchor="start" style="white-space: pre;" direction="ltr" dominant-baseline="alphabetic">DISK</text></g><g transform="translate(650 242) rotate(0 10.725000000000023 8.125)"><text x="0" y="11.453" font-family="Virgil, Segoe UI Emoji" font-size="13px" fill="#595959" text-anchor="start" style="white-space: pre;" direction="ltr" dominant-baseline="alphabetic">70%</text></g><g transform="translate(430 274) rotate(0 60.5 6.875)"><text x="0" y="9.690999999999999" font-family="Virgil, Segoe UI Emoji" font-size="11px" fill="#808080" text-anchor="start" style="white-space: pre;" direction="ltr" dominant-baseline="alphabetic">Last updated: 4s ago</text></g><g transform="translate(770 50) rotate(0 53.625 8.125)"><text x="0" y="11.453" font-family="Virgil, Segoe UI Emoji" font-size="13px" fill="#666666" text-anchor="start" style="white-space: pre;" direction="ltr" dominant-baseline="alphabetic">State: Critical</text></g><g stroke-linecap="round" transform="translate(770 100) rotate(0 160 116)"><path d="M32 0 C105.64 -3.69, 180.56 -1.96, 288 0 C310.99 1.26, 317.73 12.63, 320 32 C319.98 77.25, 325.11 122.85, 320 200 C317.26 220.34, 306.87 234.43, 288 232 C217.95 227.86, 148.06 230.36, 32 232 C11 232.1, 0.72 223.85, 0 200 C4.64 155.39, -1.94 103.34, 0 32 C-3.34 8.62, 7.42 -2.22, 32 0" stroke="none" stroke-width="0" fill="#d9d9d9"></path><path d="M32 0 C129.27 -0.65, 224.08 -0.95, 288 0 M32 0 C106 0.1, 181.22 0.54, 288 0 M288 0 C308.9 1.92, 320.42 8.84, 320 32 M288 0 C309.97 2.1, 321.52 11.63, 320 32 M320 32 C321.24 77, 317.7 120.56, 320 200 M320 32 C318.57 71.03, 319.47 112.37, 320 200 M320 200 C319.44 221.49, 308.2 231.15, 288 232 M320 200 C321.08 220.68, 308.35 231.23, 288 232 M288 232 C190.4 232.05, 91.27 231.13, 32 232 M288 232 C187.55 231.8, 87 231.74, 32 232 M32 232 C8.98 233.48, 0.3 220.36, 0 200 M32 232 C11.72 231.94, 1.86 219.22, 0 200 M0 200 C-0.4 149.83, 0.08 99.54, 0 32 M0 200 C0.79 159.39, 1.83 119.82, 0 32 M0 32 C-0.31 10.1, 9.51 1.01, 32 0 M0 32 C1.35 9.88, 12.87 -1.11, 32 0" stroke="#262626" stroke-width="3" fill="none"></path></g><g transform="translate(790 120) rotate(0 48.39999999999998 10)"><text x="0" y="14.096" font-family="Virgil, Segoe UI Emoji" font-size="16px" fill="#262626" text-anchor="start" style="white-space: pre;" direction="ltr" dominant-baseline="alphabetic">prod-web-01</text></g><g transform="translate(790 146) rotate(0 79.19999999999999 7.5)"><text x="0" y="10.572" font-family="Virgil, Segoe UI Emoji" font-size="12px" fill="#262626" text-anchor="start" style="white-space: pre;" direction="ltr" dominant-baseline="alphabetic">prod-web-01  •  CRITICAL</text></g><g transform="translate(790 168) rotate(0 29.69999999999999 7.5)"><text x="0" y="10.572" font-family="Virgil, Segoe UI Emoji" font-size="12px" fill="#808080" text-anchor="start" style="white-space: pre;" direction="ltr" dominant-baseline="alphabetic">10.0.4.11</text></g><g transform="translate(790 194) rotate(0 10.725000000000023 8.125)"><text x="0" y="11.453" font-family="Virgil, Segoe UI Emoji" font-size="13px" fill="#737373" text-anchor="start" style="white-space: pre;" direction="ltr" dominant-baseline="alphabetic">CPU</text></g><g transform="translate(1010 194) rotate(0 10.725000000000023 8.125)"><text x="0" y="11.453" font-family="Virgil, Segoe UI Emoji" font-size="13px" fill="#262626" text-anchor="start" style="white-space: pre;" direction="ltr" dominant-baseline="alphabetic">95%</text></g><g transform="translate(790 218) rotate(0 10.725000000000023 8.125)"><text x="0" y="11.453" font-family="Virgil, Segoe UI Emoji" font-size="13px" fill="#737373" text-anchor="start" style="white-space: pre;" direction="ltr" dominant-baseline="alphabetic">MEM</text></g><g transform="translate(1010 218) rotate(0 10.725000000000023 8.125)"><text x="0" y="11.453" font-family="Virgil, Segoe UI Emoji" font-size="13px" fill="#262626" text-anchor="start" style="white-space: pre;" direction="ltr" dominant-baseline="alphabetic">91%</text></g><g transform="translate(790 242) rotate(0 14.300000000000011 8.125)"><text x="0" y="11.453" font-family="Virgil, Segoe UI Emoji" font-size="13px" fill="#737373" text-anchor="start" style="white-space: pre;" direction="ltr" dominant-baseline="alphabetic">DISK</text></g><g transform="translate(1010 242) rotate(0 10.725000000000023 8.125)"><text x="0" y="11.453" font-family="Virgil, Segoe UI Emoji" font-size="13px" fill="#262626" text-anchor="start" style="white-space: pre;" direction="ltr" dominant-baseline="alphabetic">88%</text></g><g transform="translate(790 274) rotate(0 60.5 6.875)"><text x="0" y="9.690999999999999" font-family="Virgil, Segoe UI Emoji" font-size="11px" fill="#808080" text-anchor="start" style="white-space: pre;" direction="ltr" dominant-baseline="alphabetic">Last updated: 2s ago</text></g><g transform="translate(1130 50) rotate(0 64.35000000000002 8.125)"><text x="0" y="11.453" font-family="Virgil, Segoe UI Emoji" font-size="13px" fill="#666666" text-anchor="start" style="white-space: pre;" direction="ltr" dominant-baseline="alphabetic">State: Unreachable</text></g><g stroke-linecap="round" transform="translate(1130 100) rotate(0 160 116)"><path d="M32 0 C110.8 2.47, 193.09 1.97, 288 0 C306.52 -0.87, 316.63 8.55, 320 32 C315.57 73.75, 318.77 120.85, 320 200 C323.36 220.36, 309.97 230.15, 288 232 C194.01 228.35, 97.52 230.88, 32 232 C14.22 233.05, 0.27 224.29, 0 200 C0.77 154.85, 1.8 114.01, 0 32 C1.58 9.84, 13.74 1.88, 32 0" stroke="none" stroke-width="0" fill="#f7f7f7"></path><path d="M32 0 C117.46 -0.01, 199.81 1.26, 288 0 M288 0 C309.08 -0.83, 320.95 10.05, 320 32 M320 32 C318.48 80.01, 321.13 127.16, 320 200 M320 200 C320.59 223.28, 308.66 232.42, 288 232 M288 232 C230.91 233.54, 174.03 235.43, 32 232 M32 232 C12.54 230.3, -1.57 220.27, 0 200 M0 200 C1.84 137.94, -0.1 78.23, 0 32 M0 32 C0.12 10.7, 9.71 -0.24, 32 0" stroke="#999999" stroke-width="1.5" fill="none" stroke-dasharray="8 9"></path></g><g transform="translate(1150 120) rotate(0 48.39999999999998 10)"><text x="0" y="14.096" font-family="Virgil, Segoe UI Emoji" font-size="16px" fill="#999999" text-anchor="start" style="white-space: pre;" direction="ltr" dominant-baseline="alphabetic">prod-web-01</text></g><g transform="translate(1150 146) rotate(0 89.10000000000002 7.5)"><text x="0" y="10.572" font-family="Virgil, Segoe UI Emoji" font-size="12px" fill="#999999" text-anchor="start" style="white-space: pre;" direction="ltr" dominant-baseline="alphabetic">prod-web-01  •  UNREACHABLE</text></g><g transform="translate(1150 168) rotate(0 29.700000000000045 7.5)"><text x="0" y="10.572" font-family="Virgil, Segoe UI Emoji" font-size="12px" fill="#808080" text-anchor="start" style="white-space: pre;" direction="ltr" dominant-baseline="alphabetic">10.0.4.11</text></g><g transform="translate(1150 194) rotate(0 10.725000000000023 8.125)"><text x="0" y="11.453" font-family="Virgil, Segoe UI Emoji" font-size="13px" fill="#737373" text-anchor="start" style="white-space: pre;" direction="ltr" dominant-baseline="alphabetic">CPU</text></g><g transform="translate(1370 194) rotate(0 3.5750000000000455 8.125)"><text x="0" y="11.453" font-family="Virgil, Segoe UI Emoji" font-size="13px" fill="#999999" text-anchor="start" style="white-space: pre;" direction="ltr" dominant-baseline="alphabetic">—</text></g><g transform="translate(1150 218) rotate(0 10.725000000000023 8.125)"><text x="0" y="11.453" font-family="Virgil, Segoe UI Emoji" font-size="13px" fill="#737373" text-anchor="start" style="white-space: pre;" direction="ltr" dominant-baseline="alphabetic">MEM</text></g><g transform="translate(1370 218) rotate(0 3.5750000000000455 8.125)"><text x="0" y="11.453" font-family="Virgil, Segoe UI Emoji" font-size="13px" fill="#999999" text-anchor="start" style="white-space: pre;" direction="ltr" dominant-baseline="alphabetic">—</text></g><g transform="translate(1150 242) rotate(0 14.299999999999955 8.125)"><text x="0" y="11.453" font-family="Virgil, Segoe UI Emoji" font-size="13px" fill="#737373" text-anchor="start" style="white-space: pre;" direction="ltr" dominant-baseline="alphabetic">DISK</text></g><g transform="translate(1370 242) rotate(0 3.5750000000000455 8.125)"><text x="0" y="11.453" font-family="Virgil, Segoe UI Emoji" font-size="13px" fill="#999999" text-anchor="start" style="white-space: pre;" direction="ltr" dominant-baseline="alphabetic">—</text></g><g transform="translate(1150 274) rotate(0 63.52499999999998 6.875)"><text x="0" y="9.690999999999999" font-family="Virgil, Segoe UI Emoji" font-size="11px" fill="#808080" text-anchor="start" style="white-space: pre;" direction="ltr" dominant-baseline="alphabetic">Last updated: 47s ago</text></g></svg>