<svg version="1.1" xmlns="http://www.w3.org/2000/svg" viewBox="0 0 1460 920" width="1460" height="920"><!-- svg-source:excalidraw --><metadata></metadata><defs><style class="style-fonts">
      </style></defs><rect x="0" y="0" width="1460" height="920" fill="#ffffff"></rect><g stroke-linecap="round" transform="translate(10 10) rotate(0 720 450)"><path d="M0.25 1.85 L1439.66 1.67 L1441.33 901.76 L-1.74 900.46" stroke="none" stroke-width="0" fill="#f5f5f5"></path><path d="M0 0 C510.81 1.06, 1020.55 -0.19, 1440 0 M0 0 C403.53 2.92, 806.94 3.17, 1440 0 M1440 0 C1437.52 343.8, 1437.88 687.45, 1440 900 M1440 0 C1441.72 269.25, 1441.87 539.08, 1440 900 M1440 900 C1074.81 897.9, 709.22 898.59, 0 900 M1440 900 C912.2 902.05, 384.91 902.06, 0 900 M0 900 C3.11 687.11, 3.48 472.5, 0 0 M0 900 C1.14 620.36, 1.41 340.68, 0 0" stroke="#d9d9d9" stroke-width="1" fill="none"></path></g><g transform="translate(50 42) rotate(0 115.5 12.5)"><text x="0" y="17.619999999999997" font-family="Virgil, Segoe UI Emoji" font-size="20px" fill="#262626" text-anchor="start" style="white-space: pre;" direction="ltr" dominant-baseline="alphabetic">W.A.T.C.H — Dashboard</text></g><g transform="translate(1200 45) rotate(0 67.92499999999995 8.125)"><text x="0" y="11.453" font-family="Virgil, Segoe UI Emoji" font-size="13px" fill="#737373" text-anchor="start" style="white-space: pre;" direction="ltr" dominant-baseline="alphabetic">Logged in as: admin</text></g><g stroke-linecap="round" transform="translate(1350 38) rotate(0 35 16)"><path d="M8 0 C25.11 1.61, 43.46 2.12, 62 0 M8 0 C23.16 -0.9, 37.03 -1.34, 62 0 M62 0 C67.8 -2, 71.41 3.6, 70 8 M62 0 C67.67 0.69, 70.12 2.09, 70 8 M70 8 C69.05 10.48, 70.53 15.64, 70 24 M70 8 C70.51 11.8, 69.38 14.9, 70 24 M70 24 C70.54 30.79, 66.77 31.97, 62 32 M70 24 C71.11 27.43, 67.01 33.15, 62 32 M62 32 C52.48 31.94, 39.74 33.86, 8 32 M62 32 C43.77 30.96, 24.93 32.23, 8 32 M8 32 C2.2 32.93, -1.27 30.63, 0 24 M8 32 C2.44 30.4, -0.1 29.55, 0 24 M0 24 C0.76 18.26, 1.18 13.07, 0 8 M0 24 C0.67 20.12, -0.3 15.78, 0 8 M0 8 C1.6 1.16, 2.97 -0.4, 8 0 M0 8 C-0.4 2.34, 0.82 -2.2, 8 0" stroke="#b3b3b3" stroke-width="1" fill="none"></path></g><g transform="translate(1364 46) rotate(0 21.450000000000045 8.125)"><text x="0" y="11.453" font-family="Virgil, Segoe UI Emoji" font-size="13px" fill="#4d4d4d" text-anchor="start" style="white-space: pre;" direction="ltr" dominant-baseline="alphabetic">Logout</text></g><g stroke-linecap="round" transform="translate(50 102) rotate(0 160 116)"><path d="M32 0 C119.89 -3.35, 200.03 -1.02, 288 0 C306.58 -1.67, 319.53 13.27, 320 32 C316.79 81.34, 316.49 121.12, 320 200 C318.09 221.83, 310.65 234.44, 288 232 C203.45 227.34, 124.35 228.82, 32 232 C7.89 229.36, 0.13 223.32, 0 200 C2.03 144.44, 2.96 84.24, 0 32 C-0.55 10.92, 8.65 -2.71, 32 0" stroke="none" stroke-width="0" fill="#ffffff"></path><path d="M32 0 C131.76 -0.21, 231.37 1.88, 288 0 M32 0 C103.7 -1.11, 175.67 -0.29, 288 0 M288 0 C308.62 0.05, 319.09 10.64, 320 32 M288 0 C307.31 0.36, 321.43 9.42, 320 32 M320 32 C320.76 67.74, 319.59 104.86, 320 200 M320 32 C321.79 66.1, 321.59 100.11, 320 200 M320 200 C321.92 219.51, 307.84 233.7, 288 232 M320 200 C317.9 222.93, 309.2 230.82, 288 232 M288 232 C197.78 230.96, 106.62 230.9, 32 232 M288 232 C207.23 231.38, 126.11 231.14, 32 232 M32 232 C9.46 230.84, -0.63 220.37, 0 200 M32 232 C11.43 229.74, -1.09 223.05, 0 200 M0 200 C0.58 148.43, 1.38 93.23, 0 32 M0 200 C0.07 140.56, -1.37 81.2, 0 32 M0 32 C-1.15 8.9, 9.84 1.23, 32 0 M0 32 C-2.21 9.77, 8.71 -0.18, 32 0" stroke="#d9d9d9" stroke-width="1" fill="none"></path></g><g transform="translate(70 122) rotate(0 48.400000000000006 10)"><text x="0" y="14.096" font-family="Virgil, Segoe UI Emoji" font-size="16px" fill="#262626" text-anchor="start" style="white-space: pre;" direction="ltr" dominant-baseline="alphabetic">prod-web-01</text></g><g transform="translate(70 148) rotate(0 59.400000000000006 7.5)"><text x="0" y="10.572" font-family="Virgil, Segoe UI Emoji" font-size="12px" fill="#262626" text-anchor="start" style="white-space: pre;" direction="ltr" dominant-baseline="alphabetic">prod-web-01  •  OK</text></g><g transform="translate(70 170) rotate(0 29.700000000000003 7.5)"><text x="0" y="10.572" font-family="Virgil, Segoe UI Emoji" font-size="12px" fill="#808080" text-anchor="start" style="white-space: pre;" direction="ltr" dominant-baseline="alphabetic">10.0.4.11</text></g><g transform="translate(70 196) rotate(0 10.725000000000001 8.125)"><text x="0" y="11.453" font-family="Virgil, Segoe UI Emoji" font-size="13px" fill="#737373" text-anchor="start" style="white-space: pre;" direction="ltr" dominant-baseline="alphabetic">CPU</text></g><g transform="translate(290 196) rotate(0 10.724999999999994 8.125)"><text x="0" y="11.453" font-family="Virgil, Segoe UI Emoji" font-size="13px" fill="#262626" text-anchor="start" style="white-space: pre;" direction="ltr" dominant-baseline="alphabetic">42%</text></g><g transform="translate(70 220) rotate(0 10.725000000000001 8.125)"><text x="0" y="11.453" font-family="Virgil, Segoe UI Emoji" font-size="13px" fill="#737373" text-anchor="start" style="white-space: pre;" direction="ltr" dominant-baseline="alphabetic">MEM</text></g><g transform="translate(290 220) rotate(0 10.724999999999994 8.125)"><text x="0" y="11.453" font-family="Virgil, Segoe UI Emoji" font-size="13px" fill="#262626" text-anchor="start" style="white-space: pre;" direction="ltr" dominant-baseline="alphabetic">61%</text></g><g transform="translate(70 244) rotate(0 14.299999999999997 8.125)"><text x="0" y="11.453" font-family="Virgil, Segoe UI Emoji" font-size="13px" fill="#737373" text-anchor="start" style="white-space: pre;" direction="ltr" dominant-baseline="alphabetic">DISK</text></g><g transform="translate(290 244) rotate(0 10.724999999999994 8.125)"><text x="0" y="11.453" font-family="Virgil, Segoe UI Emoji" font-size="13px" fill="#262626" text-anchor="start" style="white-space: pre;" direction="ltr" dominant-baseline="alphabetic">55%</text></g><g transform="translate(70 276) rotate(0 60.5 6.875)"><text x="0" y="9.690999999999999" font-family="Virgil, Segoe UI Emoji" font-size="11px" fill="#808080" text-anchor="start" style="white-space: pre;" direction="ltr" dominant-baseline="alphabetic">Last updated: 3s ago</text></g><g stroke-linecap="round" transform="translate(394 102) rotate(0 160 116)"><path d="M32 0 C98.63 2.41, 166.46 1.36, 288 0 C307.14 2.54, 318.83 10.63, 320 32 C314.53 86.51, 316.95 147.02, 320 200 C320.76 218.95, 309.57 232.37, 288 232 C190.52 230.17, 97.78 228.78, 32 232 C11.99 234.52, -2.39 221.11, 0 200 C-2.35 161.35, -2.47 130.01, 0 32 C-2.35 11.69, 9.06 -0.5, 32 0" stroke="none" stroke-width="0" fill="#ffffff"></path><path d="M32 0 C130.2 -1.61, 227.06 -0.75, 288 0 M32 0 C118.63 1.94, 204.6 1.47, 288 0 M288 0 C309.91 0.12, 321.71 12.59, 320 32 M288 0 C310.62 1.55, 317.76 11.66, 320 32 M320 32 C319.92 87.28, 319.07 141.88, 320 200 M320 32 C320.57 94.25, 319.53 157.32, 320 200 M320 200 C320.82 222.2, 308.07 230.86, 288 232 M320 200 C318.09 223.55, 309.98 232.91, 288 232 M288 232 C186.97 230.41, 87.53 231.79, 32 232 M288 232 C192.07 233.39, 98.21 233.31, 32 232 M32 232 C10.21 232.61, -1.06 222.94, 0 200 M32 232 C10.18 233.09, -0.43 220.26, 0 200 M0 200 C0.18 136.18, -0.33 77.01, 0 32 M0 200 C1 159.17, 0.35 118.96, 0 32 M0 32 C-0.15 10.74, 11.54 0.06, 32 0 M0 32 C0.04 9.9, 8.68 -0.67, 32 0" stroke="#d9d9d9" stroke-width="1" fill="none"></path></g><g transform="translate(414 122) rotate(0 48.400000000000006 10)"><text x="0" y="14.096" font-family="Virgil, Segoe UI Emoji" font-size="16px" fill="#262626" text-anchor="start" style="white-space: pre;" direction="ltr" dominant-baseline="alphabetic">prod-web-02</text></g><g transform="translate(414 148) rotate(0 59.39999999999998 7.5)"><text x="0" y="10.572" font-family="Virgil, Segoe UI Emoji" font-size="12px" fill="#262626" text-anchor="start" style="white-space: pre;" direction="ltr" dominant-baseline="alphabetic">prod-web-02  •  OK</text></g><g transform="translate(414 170) rotate(0 29.69999999999999 7.5)"><text x="0" y="10.572" font-family="Virgil, Segoe UI Emoji" font-size="12px" fill="#808080" text-anchor="start" style="white-space: pre;" direction="ltr" dominant-baseline="alphabetic">10.0.4.12</text></g><g transform="translate(414 196) rotate(0 10.724999999999994 8.125)"><text x="0" y="11.453" font-family="Virgil, Segoe UI Emoji" font-size="13px" fill="#737373" text-anchor="start" style="white-space: pre;" direction="ltr" dominant-baseline="alphabetic">CPU</text></g><g transform="translate(634 196) rotate(0 10.725000000000023 8.125)"><text x="0" y="11.453" font-family="Virgil, Segoe UI Emoji" font-size="13px" fill="#262626" text-anchor="start" style="white-space: pre;" direction="ltr" dominant-baseline="alphabetic">38%</text></g><g transform="translate(414 220) rotate(0 10.724999999999994 8.125)"><text x="0" y="11.453" font-family="Virgil, Segoe UI Emoji" font-size="13px" fill="#737373" text-anchor="start" style="white-space: pre;" direction="ltr" dominant-baseline="alphabetic">MEM</text></g><g transform="translate(634 220) rotate(0 10.725000000000023 8.125)"><text x="0" y="11.453" font-family="Virgil, Segoe UI Emoji" font-size="13px" fill="#262626" text-anchor="start" style="white-space: pre;" direction="ltr" dominant-baseline="alphabetic">58%</text></g><g transform="translate(414 244) rotate(0 14.300000000000011 8.125)"><text x="0" y="11.453" font-family="Virgil, Segoe UI Emoji" font-size="13px" fill="#737373" text-anchor="start" style="white-space: pre;" direction="ltr" dominant-baseline="alphabetic">DISK</text></g><g transform="translate(634 244) rotate(0 10.725000000000023 8.125)"><text x="0" y="11.453" font-family="Virgil, Segoe UI Emoji" font-size="13px" fill="#262626" text-anchor="start" style="white-space: pre;" direction="ltr" dominant-baseline="alphabetic">60%</text></g><g transform="translate(414 276) rotate(0 60.5 6.875)"><text x="0" y="9.690999999999999" font-family="Virgil, Segoe UI Emoji" font-size="11px" fill="#808080" text-anchor="start" style="white-space: pre;" direction="ltr" dominant-baseline="alphabetic">Last updated: 4s ago</text></g><g stroke-linecap="round" transform="translate(738 102) rotate(0 160 116)"><path d="M32 0 C104.3 -1.37, 180.31 -4.04, 288 0 C312.8 -1.17, 316.7 11.38, 320 32 C321.2 71.9, 318.85 103.62, 320 200 C319.92 217.97, 312.68 234.69, 288 232 C237.37 230, 183.92 227.67, 32 232 C11.74 229, 2.99 220.67, 0 200 C0.15 156.81, 1.81 113.63, 0 32 C3.37 11.94, 7.43 -2.15, 32 0" stroke="none" stroke-width="0" fill="#ffffff"></path><path d="M32 0 C112.58 -0.48, 197.03 0.61, 288 0 M32 0 C126.34 -0.03, 220.79 -0.96, 288 0 M288 0 C310.76 -1.99, 318.51 10.2, 320 32 M288 0 C310.96 -0.79, 318.51 10.69, 320 32 M320 32 C318.17 96.17, 316.95 162.66, 320 200 M320 32 C321.8 84.22, 320.32 138.85, 320 200 M320 200 C319.68 221.4, 310.11 231.24, 288 232 M320 200 C319.45 219.91, 309 233.07, 288 232 M288 232 C211.23 231.28, 130.24 230.25, 32 232 M288 232 C209.05 233.77, 128.39 234.3, 32 232 M32 232 C12.36 232.12, 0.41 219.82, 0 200 M32 232 C8.37 233.73, 0.3 221.73, 0 200 M0 200 C0.87 149.67, 0.59 96.08, 0 32 M0 200 C0.48 156.58, -0.22 115, 0 32 M0 32 C0.57 9.64, 11.96 -0.85, 32 0 M0 32 C2.07 10.92, 11.37 -0.55, 32 0" stroke="#d9d9d9" stroke-width="1" fill="none"></path></g><g transform="translate(758 122) rotate(0 44 10)"><text x="0" y="14.096" font-family="Virgil, Segoe UI Emoji" font-size="16px" fill="#262626" text-anchor="start" style="white-space: pre;" direction="ltr" dominant-baseline="alphabetic">prod-db-01</text></g><g transform="translate(758 148) rotate(0 56.10000000000002 7.5)"><text x="0" y="10.572" font-family="Virgil, Segoe UI Emoji" font-size="12px" fill="#262626" text-anchor="start" style="white-space: pre;" direction="ltr" dominant-baseline="alphabetic">prod-db-01  •  OK</text></g><g transform="translate(758 170) rotate(0 29.69999999999999 7.5)"><text x="0" y="10.572" font-family="Virgil, Segoe UI Emoji" font-size="12px" fill="#808080" text-anchor="start" style="white-space: pre;" direction="ltr" dominant-baseline="alphabetic">10.0.5.10</text></g><g transform="translate(758 196) rotate(0 10.725000000000023 8.125)"><text x="0" y="11.453" font-family="Virgil, Segoe UI Emoji" font-size="13px" fill="#737373" text-anchor="start" style="white-space: pre;" direction="ltr" dominant-baseline="alphabetic">CPU</text></g><g transform="translate(978 196) rotate(0 10.725000000000023 8.125)"><text x="0" y="11.453" font-family="Virgil, Segoe UI Emoji" font-size="13px" fill="#262626" text-anchor="start" style="white-space: pre;" direction="ltr" dominant-baseline="alphabetic">55%</text></g><g transform="translate(758 220) rotate(0 10.725000000000023 8.125)"><text x="0" y="11.453" font-family="Virgil, Segoe UI Emoji" font-size="13px" fill="#737373" text-anchor="start" style="white-space: pre;" direction="ltr" dominant-baseline="alphabetic">MEM</text></g><g transform="translate(978 220) rotate(0 10.725000000000023 8.125)"><text x="0" y="11.453" font-family="Virgil, Segoe UI Emoji" font-size="13px" fill="#262626" text-anchor="start" style="white-space: pre;" direction="ltr" dominant-baseline="alphabetic">70%</text></g><g transform="translate(758 244) rotate(0 14.300000000000011 8.125)"><text x="0" y="11.453" font-family="Virgil, Segoe UI Emoji" font-size="13px" fill="#737373" text-anchor="start" style="white-space: pre;" direction="ltr" dominant-baseline="alphabetic">DISK</text></g><g transform="translate(978 244) rotate(0 10.725000000000023 8.125)"><text x="0" y="11.453" font-family="Virgil, Segoe UI Emoji" font-size="13px" fill="#262626" text-anchor="start" style="white-space: pre;" direction="ltr" dominant-baseline="alphabetic">66%</text></g><g transform="translate(758 276) rotate(0 60.5 6.875)"><text x="0" y="9.690999999999999" font-family="Virgil, Segoe UI Emoji" font-size="11px" fill="#808080" text-anchor="start" style="white-space: pre;" direction="ltr" dominant-baseline="alphabetic">Last updated: 2s ago</text></g><g stroke-linecap="round" transform="translate(50 362) rotate(0 160 116)"><path d="M32 0 C120.74 2.22, 208.98 -0.27, 288 0 C307.52 0.64, 322.89 8.35, 320 32 C319.45 90.64, 319.01 141.72, 320 200 C321.84 224.91, 306.9 229.39, 288 232 C214.74 231.01, 147.29 232.9, 32 232 C12.84 234.35, -0.82 220.22, 0 200 C-1.03 136.88, -3.83 76.44, 0 32 C3.47 9.31, 10.4 3.44, 32 0" stroke="none" stroke-width="0" fill="#ffffff"></path><path d="M32 0 C107.03 1.31, 179.29 1.07, 288 0 M32 0 C119.54 1.02, 205.85 0.33, 288 0 M288 0 C308.95 -0.77, 319.99 10.78, 320 32 M288 0 C311.08 0.23, 319.82 11.94, 320 32 M320 32 C318.54 67.47, 318.23 100.08, 320 200 M320 32 C320.18 68.19, 319.94 102.62, 320 200 M320 200 C320.64 220.61, 311.22 231.73, 288 232 M320 200 C319.49 222.3, 307.62 230.13, 288 232 M288 232 C225.74 233.42, 162.99 234.38, 32 232 M288 232 C224.83 233.06, 162.02 232.39, 32 232 M32 232 C9.28 230.12, -1.83 220.15, 0 200 M32 232 C10.74 233.65, 1.13 219.4, 0 200 M0 200 C-2.14 160.77, 0.51 122.75, 0 32 M0 200 C1.98 164.19, 1.78 126.58, 0 32 M0 32 C-1.09 9.07, 9.19 1.88, 32 0 M0 32 C-0.89 11.97, 8.51 1.79, 32 0" stroke="#d9d9d9" stroke-width="1" fill="none"></path></g><g transform="translate(70 382) rotate(0 61.60000000000001 10)"><text x="0" y="14.096" font-family="Virgil, Segoe UI Emoji" font-size="16px" fill="#262626" text-anchor="start" style="white-space: pre;" direction="ltr" dominant-baseline="alphabetic">staging-api-01</text></g><g transform="translate(70 408) rotate(0 69.30000000000001 7.5)"><text x="0" y="10.572" font-family="Virgil, Segoe UI Emoji" font-size="12px" fill="#262626" text-anchor="start" style="white-space: pre;" direction="ltr" dominant-baseline="alphabetic">staging-api-01  •  OK</text></g><g transform="translate(70 430) rotate(0 29.700000000000003 7.5)"><text x="0" y="10.572" font-family="Virgil, Segoe UI Emoji" font-size="12px" fill="#808080" text-anchor="start" style="white-space: pre;" direction="ltr" dominant-baseline="alphabetic">10.0.6.20</text></g><g transform="translate(70 456) rotate(0 10.725000000000001 8.125)"><text x="0" y="11.453" font-family="Virgil, Segoe UI Emoji" font-size="13px" fill="#737373" text-anchor="start" style="white-space: pre;" direction="ltr" dominant-baseline="alphabetic">CPU</text></g><g transform="translate(290 456) rotate(0 10.724999999999994 8.125)"><text x="0" y="11.453" font-family="Virgil, Segoe UI Emoji" font-size="13px" fill="#262626" text-anchor="start" style="white-space: pre;" direction="ltr" dominant-baseline="alphabetic">22%</text></g><g transform="translate(70 480) rotate(0 10.725000000000001 8.125)"><text x="0" y="11.453" font-family="Virgil, Segoe UI Emoji" font-size="13px" fill="#737373" text-anchor="start" style="white-space: pre;" direction="ltr" dominant-baseline="alphabetic">MEM</text></g><g transform="translate(290 480) rotate(0 10.724999999999994 8.125)"><text x="0" y="11.453" font-family="Virgil, Segoe UI Emoji" font-size="13px" fill="#262626" text-anchor="start" style="white-space: pre;" direction="ltr" dominant-baseline="alphabetic">40%</text></g><g transform="translate(70 504) rotate(0 14.299999999999997 8.125)"><text x="0" y="11.453" font-family="Virgil, Segoe UI Emoji" font-size="13px" fill="#737373" text-anchor="start" style="white-space: pre;" direction="ltr" dominant-baseline="alphabetic">DISK</text></g><g transform="translate(290 504) rotate(0 10.724999999999994 8.125)"><text x="0" y="11.453" font-family="Virgil, Segoe UI Emoji" font-size="13px" fill="#262626" text-anchor="start" style="white-space: pre;" direction="ltr" dominant-baseline="alphabetic">35%</text></g><g transform="translate(70 536) rotate(0 60.5 6.875)"><text x="0" y="9.690999999999999" font-family="Virgil, Segoe UI Emoji" font-size="11px" fill="#808080" text-anchor="start" style="white-space: pre;" direction="ltr" dominant-baseline="alphabetic">Last updated: 5s ago</text></g><g stroke-linecap="round" transform="translate(394 362) rotate(0 160 116)"><path d="M32 0 C102.66 0.1, 171.91 4.27, 288 0 C307.44 0.08, 316.52 10.53, 320 32 C316.13 91.34, 320.73 154.71, 320 200 C321.14 222.64, 305.94 232.61, 288 232 C199.29 232.73, 108.06 233.68, 32 232 C8.8 233.55, 3.36 219.05, 0 200 C1.99 142.87, -0.1 86.54, 0 32 C2.12 10.14, 8.52 1.03, 32 0" stroke="none" stroke-width="0" fill="#ffffff"></path><path d="M32 0 C124.95 2.02, 217.85 2.66, 288 0 M32 0 C100.96 0.53, 170.89 -0.59, 288 0 M288 0 C308.66 -2, 318.92 9.04, 320 32 M288 0 C311.24 0.72, 319.68 11.25, 320 32 M320 32 C322.04 71.15, 319.54 107.1, 320 200 M320 32 C319.47 91.09, 318.31 148.19, 320 200 M320 200 C319.39 222.13, 310.62 232.45, 288 232 M320 200 C321.46 220.54, 307.78 231.32, 288 232 M288 232 C189.93 233.45, 93.59 231.09, 32 232 M288 232 C209.55 232.15, 131.99 230.82, 32 232 M32 232 C11.13 232.8, 1.83 223.19, 0 200 M32 232 C10.1 232.75, -1.71 221.19, 0 200 M0 200 C-2.73 163.06, -1.29 125.13, 0 32 M0 200 C0.96 155.73, 0.67 108.84, 0 32 M0 32 C-0.66 10.94, 11.18 1.87, 32 0 M0 32 C1.96 12.6, 8.61 -0.5, 32 0" stroke="#d9d9d9" stroke-width="1" fill="none"></path></g><g transform="translate(414 382) rotate(0 35.19999999999999 10)"><text x="0" y="14.096" font-family="Virgil, Segoe UI Emoji" font-size="16px" fill="#262626" text-anchor="start" style="white-space: pre;" direction="ltr" dominant-baseline="alphabetic">cache-01</text></g><g transform="translate(414 408) rotate(0 49.5 7.5)"><text x="0" y="10.572" font-family="Virgil, Segoe UI Emoji" font-size="12px" fill="#262626" text-anchor="start" style="white-space: pre;" direction="ltr" dominant-baseline="alphabetic">cache-01  •  OK</text></g><g transform="translate(414 430) rotate(0 26.400000000000006 7.5)"><text x="0" y="10.572" font-family="Virgil, Segoe UI Emoji" font-size="12px" fill="#808080" text-anchor="start" style="white-space: pre;" direction="ltr" dominant-baseline="alphabetic">10.0.7.5</text></g><g transform="translate(414 456) rotate(0 10.724999999999994 8.125)"><text x="0" y="11.453" font-family="Virgil, Segoe UI Emoji" font-size="13px" fill="#737373" text-anchor="start" style="white-space: pre;" direction="ltr" dominant-baseline="alphabetic">CPU</text></g><g transform="translate(634 456) rotate(0 10.725000000000023 8.125)"><text x="0" y="11.453" font-family="Virgil, Segoe UI Emoji" font-size="13px" fill="#262626" text-anchor="start" style="white-space: pre;" direction="ltr" dominant-baseline="alphabetic">30%</text></g><g transform="translate(414 480) rotate(0 10.724999999999994 8.125)"><text x="0" y="11.453" font-family="Virgil, Segoe UI Emoji" font-size="13px" fill="#737373" text-anchor="start" style="white-space: pre;" direction="ltr" dominant-baseline="alphabetic">MEM</text></g><g transform="translate(634 480) rotate(0 10.725000000000023 8.125)"><text x="0" y="11.453" font-family="Virgil, Segoe UI Emoji" font-size="13px" fill="#262626" text-anchor="start" style="white-space: pre;" direction="ltr" dominant-baseline="alphabetic">48%</text></g><g transform="translate(414 504) rotate(0 14.300000000000011 8.125)"><text x="0" y="11.453" font-family="Virgil, Segoe UI Emoji" font-size="13px" fill="#737373" text-anchor="start" style="white-space: pre;" direction="ltr" dominant-baseline="alphabetic">DISK</text></g><g transform="translate(634 504) rotate(0 10.725000000000023 8.125)"><text x="0" y="11.453" font-family="Virgil, Segoe UI Emoji" font-size="13px" fill="#262626" text-anchor="start" style="white-space: pre;" direction="ltr" dominant-baseline="alphabetic">20%</text></g><g transform="translate(414 536) rotate(0 60.5 6.875)"><text x="0" y="9.690999999999999" font-family="Virgil, Segoe UI Emoji" font-size="11px" fill="#808080" text-anchor="start" style="white-space: pre;" direction="ltr" dominant-baseline="alphabetic">Last updated: 3s ago</text></g><g stroke-linecap="round" transform="translate(738 362) rotate(0 160 116)"><path d="M32 0 C131.67 -0.34, 229 1.62, 288 0 C310.65 -3.2, 316.9 12.79, 320 32 C324.45 72.07, 323.63 119.42, 320 200 C319.46 221.52, 310.95 231.05, 288 232 C231.22 233.7, 175.38 233.78, 32 232 C7.81 233.2, -0.44 218.27, 0 200 C-3.06 135.3, 0.83 74.68, 0 32 C-1.96 10.27, 10.27 -1.01, 32 0" stroke="none" stroke-width="0" fill="#ffffff"></path><path d="M32 0 C97.87 -1.93, 164.43 -2.43, 288 0 M32 0 C124.68 0.75, 216.85 1.26, 288 0 M288 0 C311.03 0.03, 321.14 9.42, 320 32 M288 0 C309.48 1.82, 318.58 8.9, 320 32 M320 32 C320.53 89.45, 320.37 147.03, 320 200 M320 32 C320.01 99.24, 319.8 164.94, 320 200 M320 200 C319.44 220.52, 308.22 231.23, 288 232 M320 200 C320.13 220.94, 307.17 230.47, 288 232 M288 232 C220.04 233.79, 151.76 233.68, 32 232 M288 232 C190.67 229.21, 92.59 230.57, 32 232 M32 232 C12.16 231.17, -1.12 219.62, 0 200 M32 232 C8.63 230.25, -1.5 222.44, 0 200 M0 200 C0.47 162.59, -1 124.32, 0 32 M0 200 C-2.22 156.29, -1.22 110.41, 0 32 M0 32 C-0.87 10.45, 9.35 -0.48, 32 0 M0 32 C0.14 10.33, 10.62 -0.82, 32 0" stroke="#d9d9d9" stroke-width="1" fill="none"></path></g><g transform="translate(758 382) rotate(0 39.60000000000002 10)"><text x="0" y="14.096" font-family="Virgil, Segoe UI Emoji" font-size="16px" fill="#262626" text-anchor="start" style="white-space: pre;" direction="ltr" dominant-baseline="alphabetic">worker-01</text></g><g transform="translate(758 408) rotate(0 52.80000000000001 7.5)"><text x="0" y="10.572" font-family="Virgil, Segoe UI Emoji" font-size="12px" fill="#262626" text-anchor="start" style="white-space: pre;" direction="ltr" dominant-baseline="alphabetic">worker-01  •  OK</text></g><g transform="translate(758 430) rotate(0 26.399999999999977 7.5)"><text x="0" y="10.572" font-family="Virgil, Segoe UI Emoji" font-size="12px" fill="#808080" text-anchor="start" style="white-space: pre;" direction="ltr" dominant-baseline="alphabetic">10.0.8.3</text></g><g transform="translate(758 456) rotate(0 10.725000000000023 8.125)"><text x="0" y="11.453" font-family="Virgil, Segoe UI Emoji" font-size="13px" fill="#737373" text-anchor="start" style="white-space: pre;" direction="ltr" dominant-baseline="alphabetic">CPU</text></g><g transform="translate(978 456) rotate(0 10.725000000000023 8.125)"><text x="0" y="11.453" font-family="Virgil, Segoe UI Emoji" font-size="13px" fill="#262626" text-anchor="start" style="white-space: pre;" direction="ltr" dominant-baseline="alphabetic">65%</text></g><g transform="translate(758 480) rotate(0 10.725000000000023 8.125)"><text x="0" y="11.453" font-family="Virgil, Segoe UI Emoji" font-size="13px" fill="#737373" text-anchor="start" style="white-space: pre;" direction="ltr" dominant-baseline="alphabetic">MEM</text></g><g transform="translate(978 480) rotate(0 10.725000000000023 8.125)"><text x="0" y="11.453" font-family="Virgil, Segoe UI Emoji" font-size="13px" fill="#262626" text-anchor="start" style="white-space: pre;" direction="ltr" dominant-baseline="alphabetic">72%</text></g><g transform="translate(758 504) rotate(0 14.300000000000011 8.125)"><text x="0" y="11.453" font-family="Virgil, Segoe UI Emoji" font-size="13px" fill="#737373" text-anchor="start" style="white-space: pre;" direction="ltr" dominant-baseline="alphabetic">DISK</text></g><g transform="translate(978 504) rotate(0 10.725000000000023 8.125)"><text x="0" y="11.453" font-family="Virgil, Segoe UI Emoji" font-size="13px" fill="#262626" text-anchor="start" style="white-space: pre;" direction="ltr" dominant-baseline="alphabetic">58%</text></g><g transform="translate(758 536) rotate(0 60.5 6.875)"><text x="0" y="9.690999999999999" font-family="Virgil, Segoe UI Emoji" font-size="11px" fill="#808080" text-anchor="start" style="white-space: pre;" direction="ltr" dominant-baseline="alphabetic">Last updated: 4s ago</text></g></svg>